<svg xmlns="http://www.w3.org/2000/svg" version="1.1" xmlns:xlink="http://www.w3.org/1999/xlink" xmlns:svgjs="http://svgjs.dev/svgjs" width="2000" height="2000" viewBox="0 0 2000 2000"><g transform="matrix(1,0,0,1,0,0.0010641689284511813)"><svg viewBox="0 0 280 280" data-background-color="#ffffff" preserveAspectRatio="xMidYMid meet" height="2000" width="2000" xmlns="http://www.w3.org/2000/svg" xmlns:xlink="http://www.w3.org/1999/xlink"><g id="tight-bounds" transform="matrix(1,0,0,1,0,-0.0001489836499786179)"><svg viewBox="0 0 280 280" height="280" width="280"><g><svg viewBox="0 0 280 280" height="280" width="280"><g><svg viewBox="0 0 280 280" height="280" width="280"><g id="textblocktransform"><svg viewBox="0 0 280 280" height="280" width="280" id="textblock"><g><svg viewBox="0 0 280 280" height="280" width="280"><g transform="matrix(1,0,0,1,57.50420886156945,57.50420886156945)"><svg viewBox="0 0 164.9915822768611 164.9915822768611" height="164.9915822768611" width="164.9915822768611"><g><circle r="82" cx="82.49579113843055" cy="82.49579113843055" fill="#673c8b" data-fill-palette-color="accent"></circle><svg xmlns="http://www.w3.org/2000/svg" xmlns:xlink="http://www.w3.org/1999/xlink" version="1.1" x="24.748737341529164" y="24.74873734152917" viewBox="0.5 8.100000000000001 126.99999999999999 112.19999999999999" enable-background="new 0 0 128 128" xml:space="preserve" height="115.49410759380275" width="115.49410759380275" class="icon-kg-0" data-fill-palette-color="quaternary" id="kg-0"><g fill="#ffffff" data-fill-palette-color="quaternary"><path d="M9.8 52.7v10.4c0 0.4 0.3 0.8 0.8 0.8 0.4 0 0.8-0.3 0.8-0.8V52.7c0-0.4-0.3-0.8-0.8-0.8C10.1 51.9 9.8 52.2 9.8 52.7z" fill="#ffffff" data-fill-palette-color="quaternary"></path><path d="M10.6 70.6c0.4 0 0.8-0.3 0.8-0.8v-3.4c0-0.4-0.3-0.8-0.8-0.8-0.4 0-0.8 0.3-0.8 0.8v3.4C9.8 70.3 10.1 70.6 10.6 70.6z" fill="#ffffff" data-fill-palette-color="quaternary"></path><path d="M121.7 47.4c0-0.4-0.3-0.8-0.8-0.8-0.4 0-0.8 0.3-0.8 0.8v10.4c0 0.4 0.3 0.8 0.8 0.8 0.4 0 0.8-0.3 0.8-0.8V47.4z" fill="#ffffff" data-fill-palette-color="quaternary"></path><path d="M121 60.5c-0.4 0-0.8 0.3-0.8 0.8v3.4c0 0.4 0.3 0.8 0.8 0.8 0.4 0 0.8-0.3 0.8-0.8v-3.4C121.7 60.8 121.4 60.5 121 60.5z" fill="#ffffff" data-fill-palette-color="quaternary"></path><path d="M6.6 106c-0.3-0.3-0.8-0.3-1.1 0-0.3 0.3-0.3 0.8 0 1.1l1.5 1.5c0.1 0.1 0.3 0.2 0.5 0.2s0.4-0.1 0.5-0.2c0.3-0.3 0.3-0.8 0-1.1L6.6 106z" fill="#ffffff" data-fill-palette-color="quaternary"></path><path d="M11.3 110.7c-0.3-0.3-0.8-0.3-1.1 0-0.3 0.3-0.3 0.8 0 1.1l1.5 1.5c0.1 0.1 0.3 0.2 0.5 0.2 0.2 0 0.4-0.1 0.5-0.2 0.3-0.3 0.3-0.8 0-1.1L11.3 110.7z" fill="#ffffff" data-fill-palette-color="quaternary"></path><path d="M7 110.7l-1.5 1.5c-0.3 0.3-0.3 0.8 0 1.1 0.1 0.1 0.3 0.2 0.5 0.2 0.2 0 0.4-0.1 0.5-0.2l1.5-1.5c0.3-0.3 0.3-0.8 0-1.1C7.7 110.4 7.2 110.4 7 110.7z" fill="#ffffff" data-fill-palette-color="quaternary"></path><path d="M11.7 106l-1.5 1.5c-0.3 0.3-0.3 0.8 0 1.1 0.1 0.1 0.3 0.2 0.5 0.2 0.2 0 0.4-0.1 0.5-0.2l1.5-1.5c0.3-0.3 0.3-0.8 0-1.1C12.4 105.7 12 105.7 11.7 106z" fill="#ffffff" data-fill-palette-color="quaternary"></path><path d="M84.2 101.3c-0.3-0.3-0.8-0.3-1.1 0-0.3 0.3-0.3 0.8 0 1.1l1.5 1.5c0.1 0.1 0.3 0.2 0.5 0.2 0.2 0 0.4-0.1 0.5-0.2 0.3-0.3 0.3-0.8 0-1.1L84.2 101.3z" fill="#ffffff" data-fill-palette-color="quaternary"></path><path d="M88.9 106c-0.3-0.3-0.8-0.3-1.1 0-0.3 0.3-0.3 0.8 0 1.1l1.5 1.5c0.1 0.1 0.3 0.2 0.5 0.2 0.2 0 0.4-0.1 0.5-0.2 0.3-0.3 0.3-0.8 0-1.1L88.9 106z" fill="#ffffff" data-fill-palette-color="quaternary"></path><path d="M84.6 106l-1.5 1.5c-0.3 0.3-0.3 0.8 0 1.1 0.1 0.1 0.3 0.2 0.5 0.2 0.2 0 0.4-0.1 0.5-0.2l1.5-1.5c0.3-0.3 0.3-0.8 0-1.1C85.4 105.7 84.9 105.7 84.6 106z" fill="#ffffff" data-fill-palette-color="quaternary"></path><path d="M89.3 101.3l-1.5 1.5c-0.3 0.3-0.3 0.8 0 1.1 0.1 0.1 0.3 0.2 0.5 0.2 0.2 0 0.4-0.1 0.5-0.2l1.5-1.5c0.3-0.3 0.3-0.8 0-1.1C90.1 101 89.6 101 89.3 101.3z" fill="#ffffff" data-fill-palette-color="quaternary"></path><path d="M70.7 19.7c0.1 0.1 0.3 0.2 0.5 0.2 0.2 0 0.4-0.1 0.5-0.2 0.3-0.3 0.3-0.8 0-1.1l-1.5-1.5c-0.3-0.3-0.8-0.3-1.1 0-0.3 0.3-0.3 0.8 0 1.1L70.7 19.7z" fill="#ffffff" data-fill-palette-color="quaternary"></path><path d="M75.4 24.4c0.1 0.1 0.3 0.2 0.5 0.2 0.2 0 0.4-0.1 0.5-0.2 0.3-0.3 0.3-0.8 0-1.1l-1.5-1.5c-0.3-0.3-0.8-0.3-1.1 0-0.3 0.3-0.3 0.8 0 1.1L75.4 24.4z" fill="#ffffff" data-fill-palette-color="quaternary"></path><path d="M69.8 24.6c0.2 0 0.4-0.1 0.5-0.2l1.5-1.5c0.3-0.3 0.3-0.8 0-1.1-0.3-0.3-0.8-0.3-1.1 0l-1.5 1.5c-0.3 0.3-0.3 0.8 0 1.1C69.4 24.5 69.6 24.6 69.8 24.6z" fill="#ffffff" data-fill-palette-color="quaternary"></path><path d="M74.5 19.9c0.2 0 0.4-0.1 0.5-0.2l1.5-1.5c0.3-0.3 0.3-0.8 0-1.1-0.3-0.3-0.8-0.3-1.1 0L74 18.6c-0.3 0.3-0.3 0.8 0 1.1C74.1 19.8 74.3 19.9 74.5 19.9z" fill="#ffffff" data-fill-palette-color="quaternary"></path><path d="M3.5 37.8C3.7 38 3.8 38.1 4 38.1c0.2 0 0.4-0.1 0.5-0.2 0.3-0.3 0.3-0.8 0-1.1l-1.5-1.5C2.8 35 2.3 35 2 35.3c-0.3 0.3-0.3 0.8 0 1.1L3.5 37.8z" fill="#ffffff" data-fill-palette-color="quaternary"></path><path d="M7.8 40c-0.3-0.3-0.8-0.3-1.1 0-0.3 0.3-0.3 0.8 0 1.1l1.5 1.5c0.1 0.1 0.3 0.2 0.5 0.2 0.2 0 0.4-0.1 0.5-0.2 0.3-0.3 0.3-0.8 0-1.1L7.8 40z" fill="#ffffff" data-fill-palette-color="quaternary"></path><path d="M2 42.6c0.1 0.1 0.3 0.2 0.5 0.2 0.2 0 0.4-0.1 0.5-0.2l1.5-1.5c0.3-0.3 0.3-0.8 0-1.1-0.3-0.3-0.8-0.3-1.1 0L2 41.5C1.8 41.8 1.8 42.3 2 42.6z" fill="#ffffff" data-fill-palette-color="quaternary"></path><path d="M8.2 35.3l-1.5 1.5c-0.3 0.3-0.3 0.8 0 1.1 0.1 0.1 0.3 0.2 0.5 0.2 0.2 0 0.4-0.1 0.5-0.2l1.5-1.5c0.3-0.3 0.3-0.8 0-1.1C9 35 8.5 35 8.2 35.3z" fill="#ffffff" data-fill-palette-color="quaternary"></path><path d="M120.4 74.3c-1.8 0-3.3 1.5-3.3 3.3 0 1.8 1.5 3.3 3.3 3.3 1.8 0 3.3-1.5 3.3-3.3C123.7 75.8 122.2 74.3 120.4 74.3zM120.4 79.4c-1 0-1.8-0.8-1.8-1.8 0-1 0.8-1.8 1.8-1.8s1.8 0.8 1.8 1.8C122.2 78.6 121.4 79.4 120.4 79.4z" fill="#ffffff" data-fill-palette-color="quaternary"></path><path d="M86.4 15.9c1.8 0 3.3-1.5 3.3-3.3 0-1.8-1.5-3.3-3.3-3.3-1.8 0-3.3 1.5-3.3 3.3C83 14.4 84.5 15.9 86.4 15.9zM86.4 10.8c1 0 1.8 0.8 1.8 1.8 0 1-0.8 1.8-1.8 1.8-1 0-1.8-0.8-1.8-1.8C84.6 11.6 85.4 10.8 86.4 10.8z" fill="#ffffff" data-fill-palette-color="quaternary"></path><path d="M5.2 78.7c-1.8 0-3.2 1.4-3.2 3.2s1.4 3.2 3.2 3.2c1.8 0 3.2-1.4 3.2-3.2S6.9 78.7 5.2 78.7zM5.2 83.6c-0.9 0-1.7-0.8-1.7-1.7 0-0.9 0.8-1.7 1.7-1.7 0.9 0 1.7 0.8 1.7 1.7C6.9 82.8 6.1 83.6 5.2 83.6z" fill="#ffffff" data-fill-palette-color="quaternary"></path><path d="M122.5 108.6h-11.3c-0.4 0-0.8 0.3-0.8 0.8 0 0.4 0.3 0.8 0.8 0.8h11.3c0.4 0 0.8-0.3 0.8-0.8C123.2 108.9 122.9 108.6 122.5 108.6z" fill="#ffffff" data-fill-palette-color="quaternary"></path><path d="M103.9 108.6c-0.4 0-0.8 0.3-0.8 0.8 0 0.4 0.3 0.8 0.8 0.8h3.6c0.4 0 0.8-0.3 0.8-0.8 0-0.4-0.3-0.8-0.8-0.8H103.9z" fill="#ffffff" data-fill-palette-color="quaternary"></path><path d="M111.7 112.4h-7.9c-0.4 0-0.8 0.3-0.8 0.8 0 0.4 0.3 0.8 0.8 0.8h7.9c0.4 0 0.8-0.3 0.8-0.8C112.5 112.8 112.1 112.4 111.7 112.4z" fill="#ffffff" data-fill-palette-color="quaternary"></path><path d="M117.6 112.4h-2.5c-0.4 0-0.8 0.3-0.8 0.8 0 0.4 0.3 0.8 0.8 0.8h2.5c0.4 0 0.8-0.3 0.8-0.8C118.4 112.8 118.1 112.4 117.6 112.4z" fill="#ffffff" data-fill-palette-color="quaternary"></path><path d="M8.6 17.2h11.3c0.4 0 0.8-0.3 0.8-0.8 0-0.4-0.3-0.8-0.8-0.8H8.6c-0.4 0-0.8 0.3-0.8 0.8C7.8 16.9 8.2 17.2 8.6 17.2z" fill="#ffffff" data-fill-palette-color="quaternary"></path><path d="M1.3 17.2h3.6c0.4 0 0.8-0.3 0.8-0.8 0-0.4-0.3-0.8-0.8-0.8H1.3c-0.4 0-0.8 0.3-0.8 0.8C0.5 16.9 0.8 17.2 1.3 17.2z" fill="#ffffff" data-fill-palette-color="quaternary"></path><path d="M9.1 19.6H1.3c-0.4 0-0.8 0.3-0.8 0.8 0 0.4 0.3 0.8 0.8 0.8h7.9c0.4 0 0.8-0.3 0.8-0.8C9.9 19.9 9.5 19.6 9.1 19.6z" fill="#ffffff" data-fill-palette-color="quaternary"></path><path d="M15.8 20.3c0-0.4-0.3-0.8-0.8-0.8h-2.5c-0.4 0-0.8 0.3-0.8 0.8 0 0.4 0.3 0.8 0.8 0.8H15C15.5 21.1 15.8 20.7 15.8 20.3z" fill="#ffffff" data-fill-palette-color="quaternary"></path><path d="M34.7 108H23.5c-0.4 0-0.8 0.3-0.8 0.8 0 0.4 0.3 0.8 0.8 0.8h11.3c0.4 0 0.8-0.3 0.8-0.8C35.5 108.3 35.2 108 34.7 108z" fill="#ffffff" data-fill-palette-color="quaternary"></path><path d="M42.1 108h-3.6c-0.4 0-0.8 0.3-0.8 0.8 0 0.4 0.3 0.8 0.8 0.8h3.6c0.4 0 0.8-0.3 0.8-0.8C42.8 108.3 42.5 108 42.1 108z" fill="#ffffff" data-fill-palette-color="quaternary"></path><path d="M42.1 104.1h-7.9c-0.4 0-0.8 0.3-0.8 0.8 0 0.4 0.3 0.8 0.8 0.8h7.9c0.4 0 0.8-0.3 0.8-0.8C42.8 104.5 42.5 104.1 42.1 104.1z" fill="#ffffff" data-fill-palette-color="quaternary"></path><path d="M30.8 105.6c0.4 0 0.8-0.3 0.8-0.8 0-0.4-0.3-0.8-0.8-0.8h-2.5c-0.4 0-0.8 0.3-0.8 0.8 0 0.4 0.3 0.8 0.8 0.8H30.8z" fill="#ffffff" data-fill-palette-color="quaternary"></path><path d="M78.2 112.8h-4.7L70.1 97h37.2c3.7 0 6.6-3 6.6-6.6V42c7.9-1.7 13.6-8.6 13.6-16.7 0-9.4-7.7-17.1-17.1-17.1-9.4 0-17.1 7.7-17.1 17.1 0 1.1 0.1 2.1 0.3 3.1H62.7v-8.5c0 0 0-0.1 0-0.1 0.1-0.2 0-0.5-0.2-0.7l-7.3-7.3c0 0 0 0 0 0-0.1-0.1-0.1-0.1-0.2-0.1 0 0 0 0-0.1 0-0.1 0-0.1 0-0.2 0 0 0 0 0 0 0h-6.2c-0.2-2-1.9-3.6-3.9-3.6-2 0-3.7 1.6-3.9 3.6h-1.3c-0.2-2-1.9-3.6-3.9-3.6-2 0-3.7 1.6-3.9 3.6h-0.9c-1.6 0-3 1.3-3 3v13.9h-5.5c-3.7 0-6.6 3-6.6 6.6v55.3c0 3.7 3 6.6 6.6 6.6h37.2l-3.4 15.8h-4.7c-1.7 0-3.2 1.4-3.2 3.2v1c0 1.7 1.4 3.2 3.2 3.2h27.1c1.7 0 3.2-1.4 3.2-3.2v-1C81.4 114.2 80 112.8 78.2 112.8zM110.4 9.7c8.6 0 15.6 7 15.6 15.6 0 7.6-5.4 14.1-12.9 15.4-0.9 0.2-1.8 0.2-2.7 0.2-7.2 0-13.5-4.9-15.2-11.9-0.3-1.2-0.4-2.4-0.4-3.7C94.8 16.7 101.8 9.7 110.4 9.7zM55.4 14.1l4.8 4.8h-4.8V14.1zM44.5 9.5c1.2 0 2.2 0.9 2.4 2.1h-4.9C42.3 10.3 43.3 9.5 44.5 9.5zM35.4 9.5c1.2 0 2.2 0.9 2.4 2.1h-4.9C33.2 10.3 34.2 9.5 35.4 9.5zM29.1 14.5c0-0.8 0.7-1.5 1.5-1.5h7.1c-0.4 0.8-1.2 1.4-2.2 1.4-0.4 0-0.8 0.3-0.8 0.8 0 0.4 0.3 0.8 0.8 0.8 1.8 0 3.3-1.2 3.8-2.9h7.6c-0.4 0.8-1.2 1.4-2.2 1.4-0.4 0-0.8 0.3-0.8 0.8 0 0.4 0.3 0.8 0.8 0.8 1.8 0 3.3-1.2 3.8-2.9h5.5v6.6c0 0.4 0.3 0.8 0.8 0.8h6.6V54c0 0.8-0.7 1.5-1.5 1.5H30.5c-0.8 0-1.5-0.7-1.5-1.5V14.5zM17 35.1c0-2.8 2.3-5.1 5.1-5.1h5.5V54c0 1.6 1.3 3 3 3h29.2c1.6 0 3-1.3 3-3V29.9h31.2c2.1 7.4 8.8 12.5 16.5 12.5 0.7 0 1.3-0.1 2-0.1v45.5H17V35.1zM22.1 95.5c-2.8 0-5.1-2.3-5.1-5.1v-1h95.5v1c0 2.8-2.3 5.1-5.1 5.1H69.2c0 0 0 0 0 0h-9c0 0 0 0 0 0H22.1zM60.8 97h7.7l3.4 15.8H57.4L60.8 97zM79.9 116.9c0 0.9-0.7 1.6-1.6 1.6H51.2c-0.9 0-1.6-0.7-1.6-1.6v-1c0-0.9 0.7-1.6 1.6-1.6h5.3 16.4 5.3c0.9 0 1.6 0.7 1.6 1.6V116.9z" fill="#ffffff" data-fill-palette-color="quaternary"></path><path d="M83.4 54.1L83.4 54.1c-2.6 2.5-2.6 6.6-0.1 9.2 1.3 1.3 3 2 4.6 2 1.6 0 3.3-0.6 4.5-1.8 2.6-2.5 2.6-6.6 0.1-9.2C90.1 51.6 86 51.6 83.4 54.1zM91.4 62.3c-2 1.9-5.1 1.9-7-0.1-1.9-2-1.9-5.1 0.1-7 2-1.9 5.1-1.9 7 0.1C93.4 57.2 93.4 60.4 91.4 62.3z" fill="#ffffff" data-fill-palette-color="quaternary"></path><path d="M104.3 54.5c-0.1-0.4-0.5-0.6-0.9-0.5L99 55c-0.5-1.5-1.2-2.8-2.3-4l3.2-3.2c0.3-0.3 0.3-0.8 0-1.1-0.3-0.3-0.8-0.3-1.1 0l-3.2 3.2c-1.2-1.1-2.6-1.8-4.1-2.3l1.1-4.3c0.1-0.4-0.1-0.8-0.5-0.9-0.4-0.1-0.8 0.1-0.9 0.5l-1.1 4.3c-1.5-0.3-3-0.3-4.5 0L84.4 43c-0.1-0.4-0.5-0.6-0.9-0.5-0.4 0.1-0.6 0.5-0.5 0.9l1.2 4.3c-1.4 0.5-2.7 1.2-3.9 2.3l-3.1-3.1c-0.3-0.3-0.8-0.3-1.1 0-0.3 0.3-0.3 0.8 0 1.1l3.1 3.1c-1 1.2-1.8 2.5-2.3 4l-4.2-1.1c-0.4-0.1-0.8 0.1-0.9 0.5-0.1 0.4 0.1 0.8 0.5 0.9l4.2 1.1c-0.3 1.5-0.3 3.1 0 4.6l-4.2 1.1c-0.4 0.1-0.6 0.5-0.5 0.9 0.1 0.3 0.4 0.6 0.7 0.6 0.1 0 0.1 0 0.2 0l4.2-1.1c0.4 1.1 0.9 2.1 1.5 3l-1.6 1.6c-0.6-0.2-1.2-0.1-1.7 0.3L64.7 77.8c-1 1-1 2.7 0 3.7l0.5 0.5c0.5 0.5 1.2 0.8 1.8 0.8 0.7 0 1.3-0.3 1.8-0.8l10.4-10.4c0.3-0.3 0.5-0.7 0.5-1.1 0-0.2 0-0.4-0.1-0.6l1.6-1.6c0.9 0.7 2 1.2 3 1.5L83.1 74c-0.1 0.4 0.1 0.8 0.5 0.9 0.1 0 0.1 0 0.2 0 0.3 0 0.6-0.2 0.7-0.6l1.1-4.2c0.7 0.1 1.5 0.2 2.3 0.2 0.8 0 1.6-0.1 2.3-0.2l1.1 4.2c0.1 0.3 0.4 0.6 0.7 0.6 0.1 0 0.1 0 0.2 0 0.4-0.1 0.6-0.5 0.5-0.9l-1.1-4.2c1.4-0.5 2.8-1.2 3.9-2.3l3.1 3.1c0.1 0.1 0.3 0.2 0.5 0.2 0.2 0 0.4-0.1 0.5-0.2 0.3-0.3 0.3-0.8 0-1.1l-3.1-3.1c1-1.2 1.8-2.5 2.3-3.9l4.3 1.2c0.1 0 0.1 0 0.2 0 0.3 0 0.6-0.2 0.7-0.6 0.1-0.4-0.1-0.8-0.5-0.9L99.4 61c0.3-1.5 0.3-3 0-4.5l4.3-1.1C104.1 55.3 104.4 54.9 104.3 54.5zM67.8 80.9c-0.4 0.4-1.1 0.4-1.6 0l-0.5-0.5c-0.4-0.4-0.4-1.1 0-1.6l10.5-10.4 2 2L67.8 80.9zM78.6 68.7L77.9 68l1.4-1.4 0.7 0.7L78.6 68.7zM95 66c-4 3.9-10.5 3.8-14.4-0.2-3.9-4-3.8-10.5 0.2-14.4 4-3.9 10.5-3.8 14.4 0.2C99.1 55.6 99.1 62.1 95 66z" fill="#ffffff" data-fill-palette-color="quaternary"></path><path d="M110.4 27.4c0.1 0 0.1 0 0.2 0l2 4c0.1 0.3 0.4 0.4 0.7 0.4 0.1 0 0.2 0 0.3-0.1 0.4-0.2 0.5-0.6 0.3-1l-2-4c0 0 0.1-0.1 0.1-0.1 0-0.1 0.1-0.1 0.1-0.2 0.1-0.1 0.1-0.2 0.2-0.4 0-0.1 0.1-0.1 0.1-0.2 0.1-0.2 0.1-0.4 0.1-0.6 0 0 0-0.1 0-0.1l8.1-3.7c0.4-0.2 0.5-0.6 0.4-1-0.2-0.4-0.6-0.5-1-0.4l-8.1 3.7c-0.4-0.4-0.9-0.6-1.5-0.6-1.2 0-2.1 0.9-2.1 2.1C108.3 26.5 109.2 27.4 110.4 27.4z" fill="#ffffff" data-fill-palette-color="quaternary"></path><path d="M110.4 14.2c0.4 0 0.8-0.3 0.8-0.8v-1.8c0-0.4-0.3-0.8-0.8-0.8-0.4 0-0.8 0.3-0.8 0.8v1.8C109.6 13.9 110 14.2 110.4 14.2z" fill="#ffffff" data-fill-palette-color="quaternary"></path><path d="M96.7 26.1h1.8c0.4 0 0.8-0.3 0.8-0.8 0-0.4-0.3-0.8-0.8-0.8h-1.8c-0.4 0-0.8 0.3-0.8 0.8C96 25.7 96.3 26.1 96.7 26.1z" fill="#ffffff" data-fill-palette-color="quaternary"></path><path d="M110.4 36.3c-0.4 0-0.8 0.3-0.8 0.8v1.8c0 0.4 0.3 0.8 0.8 0.8 0.4 0 0.8-0.3 0.8-0.8v-1.8C111.1 36.7 110.8 36.3 110.4 36.3z" fill="#ffffff" data-fill-palette-color="quaternary"></path><path d="M122.2 26.1h1.8c0.4 0 0.8-0.3 0.8-0.8 0-0.4-0.3-0.8-0.8-0.8h-1.8c-0.4 0-0.8 0.3-0.8 0.8C121.4 25.7 121.8 26.1 122.2 26.1z" fill="#ffffff" data-fill-palette-color="quaternary"></path><path d="M58.3 63.1H23.5c-0.4 0-0.8 0.3-0.8 0.8 0 0.4 0.3 0.8 0.8 0.8h34.9c0.4 0 0.8-0.3 0.8-0.8C59.1 63.4 58.7 63.1 58.3 63.1z" fill="#ffffff" data-fill-palette-color="quaternary"></path><path d="M58.3 68.9H23.5c-0.4 0-0.8 0.3-0.8 0.8 0 0.4 0.3 0.8 0.8 0.8h34.9c0.4 0 0.8-0.3 0.8-0.8C59.1 69.2 58.7 68.9 58.3 68.9z" fill="#ffffff" data-fill-palette-color="quaternary"></path><path d="M58.3 74.6H23.5c-0.4 0-0.8 0.3-0.8 0.8 0 0.4 0.3 0.8 0.8 0.8h34.9c0.4 0 0.8-0.3 0.8-0.8C59.1 75 58.7 74.6 58.3 74.6z" fill="#ffffff" data-fill-palette-color="quaternary"></path><path d="M47.8 80.4H23.5c-0.4 0-0.8 0.3-0.8 0.8 0 0.4 0.3 0.8 0.8 0.8h24.3c0.4 0 0.8-0.3 0.8-0.8C48.5 80.7 48.2 80.4 47.8 80.4z" fill="#ffffff" data-fill-palette-color="quaternary"></path><path d="M36.3 27.9H54c0.4 0 0.8-0.3 0.8-0.8 0-0.4-0.3-0.8-0.8-0.8H36.3c-0.4 0-0.8 0.3-0.8 0.8C35.5 27.6 35.9 27.9 36.3 27.9z" fill="#ffffff" data-fill-palette-color="quaternary"></path><path d="M36.3 33.7H54c0.4 0 0.8-0.3 0.8-0.8 0-0.4-0.3-0.8-0.8-0.8H36.3c-0.4 0-0.8 0.3-0.8 0.8C35.5 33.4 35.9 33.7 36.3 33.7z" fill="#ffffff" data-fill-palette-color="quaternary"></path><path d="M36.3 39.5H54c0.4 0 0.8-0.3 0.8-0.8 0-0.4-0.3-0.8-0.8-0.8H36.3c-0.4 0-0.8 0.3-0.8 0.8C35.5 39.1 35.9 39.5 36.3 39.5z" fill="#ffffff" data-fill-palette-color="quaternary"></path><path d="M36.3 45.2h12.4c0.4 0 0.8-0.3 0.8-0.8 0-0.4-0.3-0.8-0.8-0.8H36.3c-0.4 0-0.8 0.3-0.8 0.8C35.5 44.9 35.9 45.2 36.3 45.2z" fill="#ffffff" data-fill-palette-color="quaternary"></path></g></svg></g></svg></g><g><path d="M14.756 92.708v0l17.234-6.687-13.199-4.92 0.117-0.313 16.887 6.295-0.117 0.313-3.223-1.202-17.664 6.883c-0.026 0.012-0.054 0.03-0.085 0.055-0.037 0.022-0.059 0.043-0.066 0.062v0c-0.009 0.025-0.003 0.046 0.02 0.061 0.014 0.02 0.031 0.033 0.05 0.04v0l16.48 6.143-0.117 0.313-16.536-6.164c-0.126-0.047-0.206-0.124-0.239-0.229-0.03-0.112-0.03-0.209 0.001-0.291v0c0.031-0.082 0.08-0.147 0.147-0.194 0.061-0.049 0.165-0.104 0.31-0.165zM33.087 102.953l1.746-4.684c0.148-0.398 0.167-0.719 0.056-0.962-0.111-0.243-0.366-0.439-0.764-0.587v0l-10.316-3.845 8.469-2.934 3.841 1.431c0.398 0.148 0.719 0.167 0.961 0.056 0.243-0.111 0.439-0.366 0.588-0.764v0l1.746-4.684c0.148-0.398 0.167-0.719 0.056-0.962-0.111-0.243-0.366-0.439-0.764-0.587v0l-20.263-7.553c-0.392-0.146-0.713-0.165-0.962-0.056-0.243 0.111-0.439 0.366-0.587 0.764v0l-1.746 4.684c-0.148 0.398-0.167 0.719-0.056 0.962 0.117 0.245 0.372 0.441 0.764 0.587v0l6.665 2.485-9.212 3.478c-0.411 0.156-0.732 0.35-0.962 0.581-0.232 0.237-0.422 0.552-0.567 0.944v0l-1.213 3.252c-0.148 0.398-0.167 0.719-0.056 0.962 0.117 0.245 0.372 0.441 0.764 0.587v0l20.263 7.553c0.398 0.148 0.719 0.167 0.962 0.056 0.243-0.111 0.439-0.366 0.587-0.764zM35.236 97.274v0l1.86 5.326c0.058 0.115 0.085 0.273 0.082 0.474-0.009 0.198-0.052 0.402-0.13 0.61v0l-1.749 4.694c-0.186 0.499-0.435 0.82-0.748 0.963-0.315 0.149-0.722 0.131-1.221-0.056v0l-20.263-7.552c-0.272-0.101-0.488-0.225-0.65-0.372-0.164-0.14-0.277-0.309-0.341-0.505v0l-1.912-5.302c-0.042-0.138-0.055-0.305-0.04-0.501 0.009-0.198 0.052-0.402 0.13-0.61v0l1.213-3.253c0.17-0.455 0.389-0.812 0.658-1.072 0.261-0.256 0.615-0.48 1.062-0.673v0l3.305-1.22-1.747-4.96c-0.042-0.138-0.055-0.305-0.04-0.501 0.009-0.198 0.052-0.402 0.13-0.61v0l1.746-4.684c0.188-0.506 0.442-0.829 0.761-0.969 0.312-0.143 0.718-0.121 1.217 0.065v0l20.263 7.552c0.272 0.101 0.49 0.222 0.654 0.363 0.161 0.147 0.275 0.315 0.341 0.505v0l1.859 5.326c0.058 0.115 0.085 0.273 0.083 0.473-0.009 0.198-0.052 0.402-0.131 0.61v0l-1.749 4.694c-0.186 0.499-0.435 0.82-0.748 0.963-0.312 0.143-0.718 0.121-1.217-0.065v0l-3.727-1.389-1.102 0.378 1.157 0.431c0.272 0.101 0.488 0.225 0.65 0.372 0.164 0.14 0.279 0.305 0.344 0.495z" fill="#8b3c7f" data-fill-palette-color="primary"></path><path d="M62.273 61.298v0l-10.032 11.792c-0.345 0.406-0.689 0.623-1.031 0.65-0.347 0.033-0.723-0.124-1.129-0.469v0l-16.471-14.012c-0.221-0.188-0.382-0.378-0.484-0.571-0.106-0.188-0.155-0.385-0.148-0.591v0l0.012-5.637c0.008-0.144 0.052-0.306 0.133-0.484 0.076-0.183 0.186-0.36 0.331-0.529v0l10.032-11.793c0.345-0.406 0.692-0.621 1.039-0.643 0.347-0.033 0.723 0.124 1.129 0.469v0l2.975 2.531c0.221 0.188 0.382 0.378 0.484 0.571 0.097 0.188 0.146 0.385 0.148 0.591v0l-0.052 3.715c0.232-0.095 0.465-0.109 0.7-0.042 0.231 0.072 0.48 0.222 0.747 0.45v0l2.721 2.314c0.221 0.188 0.384 0.376 0.491 0.564 0.102 0.193 0.151 0.39 0.148 0.591v0l-0.01 3.884 2.983-3.507c0.345-0.406 0.689-0.623 1.032-0.65 0.347-0.033 0.723 0.124 1.129 0.469v0l2.975 2.531c0.221 0.188 0.382 0.378 0.484 0.571 0.102 0.193 0.151 0.39 0.148 0.591v0l-0.062 5.633c0.011 0.133-0.019 0.293-0.091 0.481-0.076 0.183-0.186 0.36-0.331 0.53zM52.013 67.236l10.032-11.792c0.271-0.319 0.398-0.614 0.381-0.885-0.021-0.266-0.194-0.537-0.517-0.813v0l-2.975-2.531c-0.319-0.271-0.611-0.396-0.878-0.374-0.271 0.027-0.541 0.199-0.812 0.518v0l-5.967 7.014-2.189-1.863 4.216-4.956c0.271-0.319 0.396-0.611 0.374-0.877-0.021-0.266-0.194-0.537-0.517-0.812v0l-2.721-2.315c-0.319-0.271-0.611-0.396-0.877-0.374-0.266 0.021-0.535 0.192-0.806 0.51v0l-4.216 4.956-1.958-1.666 5.967-7.014c0.271-0.319 0.398-0.614 0.381-0.885-0.021-0.266-0.194-0.537-0.518-0.812v0l-2.975-2.531c-0.319-0.271-0.614-0.398-0.885-0.381-0.271 0.027-0.541 0.199-0.813 0.518v0l-10.032 11.792c-0.275 0.324-0.402 0.619-0.381 0.885 0.027 0.271 0.199 0.541 0.518 0.813v0l16.471 14.012c0.324 0.275 0.619 0.402 0.885 0.381 0.266-0.021 0.537-0.194 0.812-0.518zM51.26 62.968l7.075-8.316 0.254 0.216-7.291 8.571-13.727-11.678 7.291-8.571 0.255 0.216-7.075 8.317 6.381 5.429 5.325-6.258 0.254 0.216-5.324 6.258z" fill="#8b3c7f" data-fill-palette-color="primary"></path><path d="M89.014 41.471l-11.109 6.401c-0.462 0.266-0.859 0.355-1.19 0.265-0.338-0.086-0.639-0.36-0.906-0.821v0l-10.796-18.737c-0.145-0.251-0.233-0.485-0.264-0.701-0.037-0.212-0.017-0.415 0.059-0.606v0l1.908-5.304c0.056-0.133 0.152-0.27 0.288-0.411 0.133-0.147 0.296-0.276 0.49-0.387v0l9.223-5.315c2.005-1.155 3.704-1.612 5.096-1.372 1.398 0.238 2.552 1.146 3.462 2.724v0l0.798 1.386c0.391 0.678 0.631 1.311 0.72 1.897 0.098 0.59 0.046 1.134-0.157 1.632v0l-0.044 0.107c1.172-0.372 2.238-0.324 3.2 0.142 0.958 0.46 1.826 1.365 2.604 2.715v0l1.531 2.657c0.502 0.871 0.807 1.692 0.916 2.462 0.109 0.77 0.033 1.511-0.226 2.221v0l-1.908 5.304c-0.253 0.683-0.686 1.337-1.298 1.962-0.616 0.62-1.415 1.213-2.397 1.779zM79.659 42.283l11.1-6.396c1.906-1.098 3.095-2.297 3.568-3.598 0.473-1.3 0.243-2.76-0.689-4.379v0l-1.531-2.657c-0.812-1.409-1.726-2.307-2.744-2.694-1.026-0.39-2.188-0.285-3.485 0.316v0c0.434-0.585 0.643-1.215 0.627-1.892-0.012-0.67-0.253-1.412-0.721-2.224v0l-0.798-1.385c-0.866-1.502-1.96-2.355-3.284-2.558-1.324-0.203-2.929 0.24-4.818 1.328v0l-9.224 5.315c-0.368 0.212-0.587 0.447-0.656 0.705-0.066 0.264 0.005 0.577 0.214 0.94v0l10.797 18.737c0.212 0.368 0.447 0.587 0.705 0.656 0.258 0.069 0.571-0.002 0.939-0.214zM88.102 33.949v0l-7.777 4.482-8.998-15.616 5.865-3.38c0.795-0.458 1.488-0.748 2.079-0.871 0.597-0.126 1.111-0.126 1.542 0 0.431 0.126 0.802 0.344 1.113 0.655 0.302 0.309 0.576 0.676 0.822 1.103v0l1.066 1.85c0.333 0.579 0.539 1.165 0.617 1.758 0.075 0.603-0.242 1.249-0.951 1.938v0c0.795-0.458 1.488-0.748 2.079-0.871 0.597-0.126 1.116-0.117 1.556 0.026 0.441 0.143 0.823 0.394 1.147 0.752 0.32 0.353 0.618 0.769 0.894 1.249v0l1.066 1.85c0.246 0.427 0.425 0.845 0.537 1.255 0.106 0.414 0.103 0.821-0.01 1.22-0.118 0.403-0.388 0.819-0.81 1.25-0.413 0.432-1.025 0.883-1.837 1.35zM77.359 19.725v0l-5.576 3.213 4.183 7.26 5.576-3.214c0.795-0.458 1.381-0.893 1.759-1.305 0.381-0.406 0.621-0.801 0.719-1.185 0.102-0.378 0.096-0.745-0.016-1.101-0.121-0.359-0.281-0.71-0.479-1.055v0l-1.066-1.85c-0.445-0.772-1.041-1.3-1.789-1.585-0.757-0.288-1.861-0.014-3.311 0.822zM77.756 26.352l-1.799-3.122 2.455-1.414c0.368-0.212 0.699-0.274 0.991-0.186 0.298 0.085 0.558 0.321 0.781 0.707v0l0.464 0.806c0.222 0.386 0.295 0.729 0.22 1.03-0.07 0.297-0.289 0.552-0.657 0.764v0zM83.647 26.157v0l-7.514 4.33 4.314 7.488 7.488-4.315c1.444-0.832 2.251-1.613 2.423-2.342 0.175-0.724 0.033-1.483-0.425-2.278v0l-1.066-1.85c-0.498-0.865-1.131-1.462-1.897-1.792-0.766-0.329-1.874-0.076-3.323 0.759zM82.287 34.216l-1.965-3.41 3.762-2.168c0.362-0.209 0.691-0.274 0.985-0.194 0.286 0.077 0.54 0.308 0.762 0.694v0l0.647 1.122c0.222 0.386 0.298 0.727 0.228 1.025-0.076 0.301-0.295 0.555-0.657 0.764v0z" fill="#8b3c7f" data-fill-palette-color="primary"></path><path d="M121.391 30.742v0c-2.127 0.367-3.915 0.442-5.362 0.227-1.446-0.209-2.619-0.62-3.519-1.232-0.894-0.619-1.574-1.385-2.039-2.297-0.459-0.914-0.777-1.886-0.955-2.916v0l-2.636-15.288c-0.049-0.286-0.055-0.535-0.016-0.747 0.045-0.213 0.134-0.396 0.265-0.548v0l3.629-4.323c0.091-0.105 0.226-0.2 0.403-0.285 0.176-0.092 0.373-0.157 0.593-0.194v0l5.165-0.891c0.525-0.091 0.929-0.033 1.211 0.171 0.287 0.197 0.476 0.558 0.566 1.083v0l2.587 14.998c0.034 0.199 0.095 0.374 0.182 0.523 0.095 0.155 0.26 0.256 0.494 0.305v0l-2.125-12.325c-0.049-0.286-0.058-0.534-0.026-0.745 0.032-0.211 0.105-0.381 0.22-0.511v0l0.025-0.035 3.659-4.327c0.091-0.105 0.222-0.199 0.393-0.284 0.163-0.09 0.363-0.155 0.603-0.196v0l5.006-0.863c0.525-0.091 0.929-0.033 1.21 0.171 0.281 0.198 0.466 0.56 0.557 1.085v0l2.808 16.284c0.173 1.004 0.194 1.959 0.062 2.865-0.138 0.907-0.527 1.73-1.165 2.47v0l-3.666 4.288c-0.658 0.791-1.633 1.486-2.927 2.086-1.301 0.594-3.035 1.078-5.202 1.451zM133.97 17.637v0l-2.808-16.284c-0.071-0.412-0.22-0.698-0.446-0.858-0.218-0.154-0.533-0.196-0.946-0.124v0l-5.006 0.863c-0.412 0.071-0.695 0.216-0.849 0.434-0.153 0.225-0.194 0.543-0.123 0.956v0l2.586 14.998c0.076 0.439-0.027 0.836-0.307 1.192-0.275 0.349-0.995 0.623-2.159 0.824v0c-1.137 0.196-1.897 0.176-2.279-0.058-0.377-0.243-0.604-0.584-0.68-1.023v0l-2.586-14.998c-0.071-0.412-0.216-0.699-0.435-0.859-0.218-0.154-0.537-0.195-0.956-0.123v0l-5.166 0.891c-0.419 0.072-0.705 0.217-0.859 0.435-0.153 0.225-0.194 0.543-0.123 0.956v0l2.808 16.284c0.173 1.004 0.48 1.892 0.922 2.665 0.435 0.774 1.081 1.385 1.938 1.833 0.859 0.454 1.974 0.731 3.347 0.829 1.372 0.099 3.076-0.027 5.11-0.378v0c2.041-0.352 3.692-0.804 4.952-1.357 1.26-0.553 2.219-1.187 2.876-1.902 0.651-0.708 1.056-1.5 1.213-2.376 0.157-0.876 0.149-1.816-0.024-2.82zM117.12 19.731l-2.366-13.721 0.329-0.057 2.366 13.722c0.211 1.223 0.814 2.139 1.809 2.748 1.002 0.608 2.719 0.702 5.152 0.282v0c2.433-0.42 4.023-1.084 4.771-1.993 0.747-0.909 1.015-1.975 0.803-3.199v0l-2.366-13.721 0.33-0.057 2.366 13.721c0.226 1.31-0.052 2.456-0.835 3.441-0.775 0.983-2.446 1.695-5.012 2.137v0c-2.566 0.442-4.376 0.33-5.428-0.337-1.053-0.667-1.692-1.656-1.919-2.966z" fill="#8b3c7f" data-fill-palette-color="primary"></path><path d="M161.141 30.454v0l-5.323-0.988c-0.524-0.097-0.883-0.287-1.078-0.571-0.194-0.283-0.243-0.687-0.145-1.211v0l2.931-15.789-4.497-0.835c-0.524-0.097-0.887-0.288-1.088-0.572-0.194-0.283-0.243-0.687-0.146-1.211v0l0.737-3.97c0.053-0.285 0.138-0.52 0.254-0.704 0.11-0.185 0.253-0.327 0.429-0.425v0l4.904-2.795c0.122-0.067 0.281-0.109 0.476-0.127 0.197-0.025 0.405-0.018 0.624 0.023v0l17.331 3.217c0.524 0.097 0.883 0.291 1.076 0.581 0.194 0.283 0.243 0.687 0.146 1.21v0l-0.737 3.97c-0.053 0.285-0.134 0.521-0.244 0.706-0.115 0.178-0.262 0.319-0.439 0.423v0l-4.926 2.75c-0.103 0.077-0.254 0.131-0.452 0.163-0.197 0.025-0.405 0.018-0.624-0.023v0l-0.258-0.048-2.266 12.207c-0.053 0.285-0.138 0.52-0.255 0.705-0.11 0.185-0.253 0.327-0.428 0.424v0l-4.926 2.75c-0.103 0.077-0.254 0.131-0.452 0.163-0.197 0.025-0.405 0.018-0.624-0.023zM160.781 26.352l5.312 0.987c0.418 0.078 0.737 0.041 0.958-0.111 0.22-0.151 0.369-0.436 0.446-0.854v0l2.99-16.107 4.826 0.895c0.411 0.076 0.727 0.039 0.947-0.112 0.22-0.151 0.369-0.436 0.447-0.854v0l0.737-3.969c0.076-0.411 0.04-0.73-0.111-0.958-0.151-0.22-0.432-0.368-0.844-0.444v0l-17.331-3.218c-0.411-0.076-0.727-0.039-0.947 0.113-0.221 0.158-0.37 0.442-0.447 0.853v0l-0.737 3.97c-0.078 0.418-0.041 0.737 0.11 0.957 0.151 0.22 0.432 0.368 0.844 0.445v0l4.826 0.896-2.991 16.108c-0.078 0.418-0.041 0.737 0.111 0.957 0.151 0.22 0.436 0.369 0.854 0.446zM164.155 23.922l-0.329-0.061 3.229-17.391-6.736-1.251 0.061-0.328 13.79 2.56-0.061 0.328-6.726-1.248z" fill="#8b3c7f" data-fill-palette-color="primary"></path><path d="M210.753 23.758v0l-6.31-3.623-4.801 8.364 6.31 3.622c1.194 0.685 2.161 0.856 2.903 0.512 0.736-0.347 1.408-1.051 2.017-2.11v0l1.163-2.027c0.507-0.883 0.676-1.747 0.507-2.591-0.169-0.844-0.766-1.56-1.789-2.147zM204.111 27.949l2.126-3.703 2.177 1.249c0.497 0.285 0.758 0.61 0.782 0.974 0.028 0.358-0.069 0.73-0.291 1.117v0l-0.564 0.983c-0.222 0.386-0.496 0.66-0.822 0.823-0.323 0.157-0.734 0.092-1.231-0.193v0zM199.491 28.762l-3.854 6.714-0.29-0.166 8.973-15.63 6.599 3.788c1.117 0.641 1.769 1.431 1.954 2.37 0.176 0.941-0.007 1.882-0.548 2.824v0l-1.149 2.001c-0.51 0.889-1.046 1.551-1.605 1.984-0.554 0.437-1.24 0.56-2.057 0.371v0l0.316 0.181c1.182 0.678 1.907 1.448 2.174 2.31 0.274 0.865 0.123 1.798-0.451 2.798v0l-2.226 3.879-0.29-0.166 2.227-3.879c0.541-0.942 0.687-1.799 0.438-2.572-0.249-0.773-0.923-1.475-2.023-2.106v0zM191.771 36.722l4.45 2.555c0.369 0.212 0.682 0.282 0.939 0.212 0.258-0.07 0.493-0.289 0.704-0.657v0l3.255-5.67 4.054 2.328c0.404 0.232 0.63 0.494 0.68 0.787 0.046 0.299-0.053 0.662-0.298 1.089v0l-2.539 4.423c-0.212 0.369-0.282 0.682-0.213 0.94 0.07 0.258 0.289 0.493 0.658 0.704v0l4.485 2.574c0.369 0.212 0.682 0.282 0.939 0.213 0.258-0.07 0.493-0.289 0.704-0.658v0l3.522-6.134c0.699-1.217 0.933-2.378 0.703-3.482-0.224-1.101-0.823-2.009-1.797-2.723v0c0.741 0.091 1.395-0.078 1.96-0.509 0.569-0.436 1.085-1.057 1.549-1.864v0l0.766-1.334c0.819-1.428 1.077-2.824 0.771-4.19-0.302-1.371-1.532-2.676-3.691-3.915v0l-9.636-5.532c-0.369-0.212-0.682-0.282-0.94-0.213-0.261 0.076-0.496 0.295-0.704 0.658v0l-10.766 18.755c-0.212 0.369-0.282 0.682-0.212 0.939 0.07 0.258 0.289 0.493 0.657 0.705zM197.136 39.837v0l-5.559 0.963c-0.123 0.038-0.283 0.04-0.48 0.004-0.194-0.041-0.388-0.117-0.581-0.228v0l-4.458-2.559c-0.462-0.265-0.738-0.564-0.828-0.896-0.096-0.335-0.011-0.733 0.254-1.195v0l10.766-18.755c0.144-0.252 0.302-0.445 0.473-0.58 0.165-0.139 0.35-0.223 0.554-0.254v0l5.544-1.018c0.143-0.019 0.31-0.005 0.5 0.042 0.194 0.041 0.388 0.117 0.581 0.229v0l9.636 5.531c2.293 1.317 3.589 2.698 3.887 4.145 0.301 1.441 0.02 2.913-0.843 4.416v0l-0.766 1.334c-0.41 0.714-0.852 1.288-1.328 1.723-0.478 0.426-1.004 0.692-1.578 0.798v0l-0.026-0.015c0.762 0.772 1.202 1.693 1.319 2.764 0.117 1.07-0.151 2.173-0.803 3.308v0l-3.521 6.134c-0.144 0.252-0.302 0.445-0.473 0.581-0.165 0.139-0.347 0.225-0.545 0.258v0l-5.559 0.964c-0.123 0.038-0.283 0.04-0.48 0.004-0.194-0.041-0.388-0.117-0.581-0.229v0l-4.485-2.574c-0.468-0.269-0.747-0.569-0.836-0.9-0.09-0.332-0.002-0.728 0.263-1.191v0l2.544-4.432c0.178-0.31 0.256-0.581 0.233-0.812-0.023-0.231-0.19-0.435-0.5-0.613v0l-0.026-0.015-1.28 2.229c-0.144 0.252-0.299 0.447-0.464 0.585-0.171 0.135-0.356 0.22-0.554 0.254z" fill="#8b3c7f" data-fill-palette-color="primary"></path><path d="M226.974 70.67v0l-9.278-10.773c-0.348-0.404-0.509-0.777-0.483-1.12 0.026-0.343 0.24-0.688 0.644-1.035v0l3.013-2.595c0.22-0.189 0.428-0.32 0.625-0.392 0.206-0.071 0.411-0.091 0.615-0.061v0l5.211 0.84 5.643-4.86-1.941-2.254c-0.348-0.404-0.509-0.777-0.484-1.12 0.026-0.343 0.24-0.688 0.645-1.035v0l3.059-2.635c0.22-0.189 0.431-0.322 0.632-0.397 0.206-0.071 0.408-0.089 0.607-0.056v0l5.567 0.882c0.141 0.03 0.294 0.098 0.458 0.206 0.169 0.104 0.327 0.24 0.472 0.409v0l9.278 10.773c0.348 0.404 0.506 0.779 0.475 1.126-0.026 0.343-0.24 0.688-0.644 1.035v0l-3.059 2.635c-0.22 0.189-0.431 0.322-0.632 0.398-0.201 0.066-0.403 0.085-0.607 0.055v0l-5.119-0.827-5.69 4.9 1.896 2.201c0.348 0.404 0.509 0.777 0.483 1.119-0.031 0.347-0.248 0.694-0.652 1.042v0l-3.006 2.589c-0.22 0.189-0.431 0.322-0.632 0.398-0.206 0.071-0.408 0.089-0.607 0.055v0l-5.556-0.931c-0.133-0.01-0.287-0.064-0.461-0.164-0.169-0.104-0.327-0.24-0.472-0.408zM223.515 60.575v0l9.278 10.773c0.273 0.317 0.543 0.485 0.809 0.505 0.266 0.02 0.561-0.109 0.882-0.386v0l3.006-2.589c0.322-0.277 0.493-0.549 0.513-0.815 0.02-0.266-0.107-0.558-0.379-0.875v0l-2.114-2.454 8.496-7.317 2.113 2.454c0.273 0.317 0.543 0.485 0.809 0.505 0.266 0.02 0.561-0.109 0.883-0.386v0l3.06-2.635c0.317-0.273 0.488-0.545 0.512-0.815 0.02-0.266-0.107-0.558-0.379-0.875v0l-9.278-10.773c-0.277-0.322-0.549-0.493-0.816-0.513-0.272-0.015-0.566 0.113-0.882 0.386v0l-3.06 2.635c-0.322 0.277-0.493 0.549-0.513 0.815-0.02 0.266 0.109 0.561 0.387 0.883v0l2.152 2.5-8.496 7.316-2.152-2.5c-0.277-0.322-0.549-0.493-0.816-0.512-0.266-0.02-0.561 0.109-0.882 0.386v0l-3.006 2.588c-0.322 0.277-0.493 0.549-0.513 0.816-0.02 0.266 0.109 0.561 0.386 0.883zM234.148 67.804l-0.253 0.218-6.927-8.044 0.253-0.218 3.374 3.919 13.15-11.325-3.374-3.918 0.253-0.218 6.927 8.043-0.253 0.218-3.335-3.872-13.15 11.325z" fill="#8b3c7f" data-fill-palette-color="primary"></path><path d="M248.51 91.471v0l-1.393 0.55-0.122-0.311 1.393-0.549c0.458-0.181 0.894-0.334 1.308-0.462 0.414-0.127 0.837-0.131 1.268-0.011v0l6.56 1.711 3.56-5.701c0.241-0.363 0.555-0.643 0.942-0.839 0.391-0.205 0.812-0.396 1.264-0.575v0l0.47-0.185 0.123 0.31-0.471 0.186c-0.433 0.171-0.839 0.356-1.216 0.556-0.374 0.191-0.665 0.447-0.872 0.768v0l-3.567 5.714 1.456 3.69 6.458 1.619c0.37 0.093 0.759 0.085 1.165-0.024 0.41-0.118 0.832-0.263 1.265-0.434v0l0.47-0.185 0.123 0.31-0.471 0.186c-0.452 0.178-0.889 0.329-1.312 0.452-0.419 0.114-0.839 0.124-1.261 0.03v0l-6.54-1.663-3.58 5.653c-0.244 0.357-0.557 0.637-0.941 0.839-0.387 0.196-0.809 0.384-1.268 0.566v0l-1.393 0.549-0.122-0.311 1.393-0.549c0.433-0.171 0.84-0.353 1.22-0.547 0.378-0.2 0.671-0.46 0.878-0.781v0l3.594-5.616-1.47-3.728-6.471-1.679c-0.352-0.101-0.736-0.091-1.152 0.03-0.425 0.117-0.854 0.261-1.288 0.431zM246.752 96.005v0l3.069-1.211c0.207-0.082 0.427-0.158 0.66-0.228 0.24-0.073 0.493-0.075 0.76-0.005v0l2.507 0.621c0.232 0.054 0.408 0.115 0.529 0.183 0.13 0.072 0.227 0.19 0.291 0.353v0l0.171 0.433c0.067 0.169 0.076 0.322 0.028 0.456-0.04 0.139-0.127 0.304-0.262 0.495v0l-1.416 2.147c-0.15 0.226-0.338 0.394-0.562 0.504-0.219 0.108-0.431 0.203-0.639 0.285v0l-3.068 1.21c-0.395 0.156-0.646 0.356-0.753 0.601-0.106 0.245-0.082 0.565 0.074 0.961v0l1.86 4.716c0.156 0.395 0.356 0.646 0.601 0.753 0.245 0.106 0.565 0.082 0.961-0.074v0l3.323-1.311c0.948-0.374 1.629-0.733 2.044-1.078 0.418-0.339 0.852-0.873 1.304-1.602v0l2.361-3.835 4.408 1.166c0.818 0.199 1.499 0.29 2.043 0.271 0.541-0.025 1.289-0.225 2.243-0.601v0l2.391-0.943c0.389-0.153 0.64-0.354 0.753-0.602 0.106-0.245 0.082-0.565-0.074-0.96v0l-1.86-4.717c-0.156-0.395-0.356-0.646-0.602-0.752-0.251-0.104-0.572-0.079-0.96 0.074v0l-2.147 0.846c-0.207 0.082-0.427 0.158-0.66 0.228-0.233 0.07-0.482 0.074-0.746 0.012v0l-2.512-0.631c-0.213-0.061-0.386-0.123-0.519-0.187-0.136-0.07-0.236-0.186-0.301-0.349v0l-0.148-0.376c-0.064-0.163-0.072-0.32-0.023-0.47 0.05-0.15 0.135-0.311 0.256-0.482v0l1.42-2.137c0.15-0.226 0.335-0.393 0.553-0.501 0.216-0.114 0.428-0.212 0.635-0.294v0l2.146-0.846c0.389-0.153 0.64-0.354 0.753-0.601 0.106-0.245 0.083-0.562-0.07-0.952v0l-1.886-4.782c-0.156-0.395-0.356-0.646-0.602-0.753-0.251-0.104-0.572-0.079-0.96 0.075v0l-2.391 0.943c-0.954 0.376-1.638 0.737-2.054 1.081-0.415 0.345-0.85 0.879-1.304 1.602v0l-2.385 3.856-4.384-1.186c-0.818-0.199-1.498-0.287-2.039-0.262-0.544 0.019-1.29 0.215-2.237 0.588v0l-3.324 1.311c-0.395 0.156-0.646 0.356-0.752 0.601-0.106 0.245-0.082 0.565 0.074 0.961v0l1.86 4.716c0.156 0.395 0.356 0.646 0.601 0.753 0.245 0.106 0.565 0.082 0.961-0.074zM245.555 96.335v0l-4.944-2.717c-0.12-0.047-0.246-0.146-0.378-0.297-0.126-0.153-0.23-0.334-0.311-0.541v0l-1.864-4.725c-0.196-0.496-0.225-0.901-0.088-1.217 0.137-0.315 0.453-0.57 0.949-0.765v0l3.323-1.311c1.017-0.401 1.805-0.618 2.366-0.65 0.56-0.032 1.272 0.071 2.135 0.311v0l4.134 1.133 2.258-3.653c0.461-0.762 0.91-1.323 1.348-1.685 0.431-0.359 1.152-0.737 2.162-1.136v0l2.392-0.942c0.27-0.106 0.513-0.162 0.728-0.168 0.218 0.001 0.415 0.05 0.591 0.148v0l4.966 2.664c0.124 0.075 0.245 0.19 0.365 0.346 0.126 0.153 0.23 0.334 0.311 0.541v0l1.886 4.782c0.196 0.496 0.222 0.902 0.079 1.22-0.137 0.315-0.453 0.57-0.949 0.766v0l-2.147 0.846c-0.182 0.072-0.371 0.154-0.566 0.245-0.19 0.089-0.341 0.229-0.455 0.419v0l-0.366 0.536 0.368-0.145c0.27-0.106 0.513-0.162 0.728-0.168 0.218 0.001 0.415 0.05 0.591 0.148v0l4.966 2.664c0.124 0.075 0.245 0.19 0.365 0.346 0.126 0.153 0.23 0.334 0.311 0.541v0l1.86 4.716c0.196 0.496 0.223 0.906 0.083 1.23-0.137 0.315-0.453 0.57-0.949 0.765v0l-2.392 0.943c-1.017 0.401-1.805 0.618-2.365 0.65-0.563 0.026-1.274-0.078-2.135-0.311v0l-4.172-1.118-2.22 3.639c-0.463 0.756-0.913 1.317-1.348 1.684-0.431 0.359-1.152 0.737-2.163 1.136v0l-3.323 1.31c-0.27 0.106-0.514 0.159-0.731 0.158-0.215 0.005-0.411-0.041-0.588-0.138v0l-4.944-2.717c-0.12-0.047-0.246-0.146-0.378-0.297-0.126-0.153-0.23-0.334-0.311-0.54v0l-1.86-4.717c-0.198-0.502-0.229-0.911-0.092-1.225 0.137-0.315 0.453-0.57 0.949-0.766v0l3.079-1.214c0.182-0.072 0.365-0.151 0.548-0.238 0.186-0.081 0.345-0.219 0.477-0.417v0l0.405-0.627-1.365 0.538c-0.27 0.106-0.514 0.159-0.731 0.158-0.215 0.005-0.411-0.041-0.588-0.138z" fill="#8b3c7f" data-fill-palette-color="primary"></path><path d="M25.631 177.833v0l-7.638 13.943 11.408-4.071 0.095 0.267-14.601 5.21-0.095-0.267 2.783-0.993 7.819-14.308c0.012-0.026 0.023-0.055 0.034-0.087 0.004-0.03 0.002-0.054-0.005-0.074v0c-0.007-0.019-0.019-0.033-0.036-0.041-0.021 0-0.042 0.004-0.061 0.011v0l-14.248 5.085-0.095-0.267 14.305-5.105c0.108-0.039 0.2-0.032 0.276 0.02 0.082 0.049 0.137 0.112 0.164 0.188v0c0.025 0.07 0.029 0.14 0.011 0.211-0.02 0.064-0.059 0.157-0.116 0.278zM7.894 181.24l1.445 4.051c0.122 0.343 0.287 0.564 0.494 0.661 0.209 0.104 0.485 0.095 0.829-0.027v0l8.92-3.183-3.945 6.619-3.326 1.187c-0.343 0.122-0.564 0.287-0.661 0.494-0.098 0.207-0.086 0.482 0.036 0.825v0l1.446 4.05c0.122 0.343 0.287 0.564 0.494 0.662 0.207 0.098 0.482 0.086 0.825-0.037v0l17.517-6.251c0.343-0.122 0.564-0.287 0.662-0.494 0.098-0.207 0.086-0.482-0.037-0.825v0l-1.445-4.05c-0.122-0.343-0.287-0.564-0.494-0.662-0.207-0.098-0.482-0.086-0.825 0.037v0l-5.757 2.054 4.13-7.394c0.183-0.33 0.285-0.635 0.308-0.916 0.022-0.28-0.028-0.592-0.151-0.934v0l-1.004-2.812c-0.122-0.343-0.287-0.564-0.494-0.662-0.207-0.098-0.482-0.086-0.825 0.037v0l-17.517 6.251c-0.343 0.122-0.564 0.287-0.662 0.494-0.098 0.207-0.086 0.482 0.037 0.825zM9.62 186.168v0l-4.171-2.476c-0.095-0.045-0.198-0.133-0.31-0.266-0.112-0.132-0.199-0.287-0.262-0.464v0l-1.449-4.061c-0.154-0.432-0.165-0.783-0.032-1.052 0.127-0.267 0.406-0.478 0.838-0.632v0l17.517-6.251c0.235-0.084 0.443-0.122 0.625-0.116 0.186-0.002 0.355 0.042 0.509 0.13v0l4.19 2.438c0.102 0.064 0.203 0.168 0.304 0.31 0.099 0.137 0.18 0.294 0.243 0.472v0l1.004 2.811c0.141 0.394 0.199 0.749 0.176 1.066-0.032 0.312-0.145 0.657-0.34 1.034v0l-1.497 2.64 3.902 2.293c0.102 0.064 0.202 0.164 0.301 0.301 0.099 0.137 0.181 0.297 0.246 0.482v0l1.446 4.05c0.154 0.432 0.168 0.782 0.041 1.049-0.124 0.274-0.403 0.488-0.835 0.642v0l-17.517 6.251c-0.235 0.084-0.443 0.122-0.625 0.115-0.188-0.005-0.358-0.051-0.512-0.139v0l-4.171-2.476c-0.095-0.045-0.198-0.133-0.31-0.266-0.112-0.132-0.2-0.29-0.266-0.474v0l-1.445-4.051c-0.154-0.432-0.166-0.786-0.035-1.062 0.127-0.267 0.406-0.478 0.838-0.632v0l3.212-1.146 0.523-0.853-1.001 0.357c-0.235 0.084-0.443 0.122-0.625 0.116-0.188-0.005-0.358-0.051-0.512-0.14z" fill="#8b3c7f" data-fill-palette-color="primary"></path><path d="M34.843 234.905v0l-8.525-10.232c-0.294-0.352-0.424-0.678-0.392-0.976 0.027-0.295 0.216-0.589 0.569-0.883v0l14.289-11.906c0.192-0.16 0.374-0.268 0.547-0.323 0.174-0.066 0.348-0.083 0.522-0.053v0l4.773 0.843c0.117 0.025 0.248 0.087 0.393 0.187 0.14 0.094 0.27 0.214 0.391 0.359v0l8.524 10.231c0.294 0.352 0.427 0.676 0.401 0.97-0.027 0.295-0.216 0.589-0.569 0.883v0l-2.581 2.15c-0.192 0.16-0.372 0.27-0.541 0.332-0.178 0.06-0.354 0.076-0.528 0.045v0l-3.144-0.595c0.048 0.206 0.025 0.405-0.068 0.598-0.089 0.188-0.25 0.38-0.484 0.574v0l-2.363 1.969c-0.192 0.16-0.374 0.268-0.547 0.324-0.178 0.06-0.354 0.076-0.528 0.045v0l-3.289-0.58 2.533 3.04c0.294 0.352 0.427 0.676 0.4 0.971-0.027 0.295-0.216 0.589-0.569 0.882v0l-2.581 2.151c-0.192 0.16-0.372 0.27-0.54 0.331-0.178 0.06-0.354 0.076-0.529 0.045v0l-4.769-0.886c-0.105-0.01-0.232-0.057-0.382-0.143-0.155-0.091-0.292-0.209-0.413-0.353zM31.317 225.329l8.524 10.232c0.233 0.28 0.464 0.43 0.692 0.451 0.228 0.021 0.482-0.085 0.762-0.319v0l2.581-2.151c0.28-0.233 0.43-0.464 0.451-0.692 0.021-0.228-0.085-0.482-0.319-0.761v0l-5.072-6.088 1.897-1.58 3.582 4.299c0.233 0.28 0.464 0.43 0.692 0.451 0.228 0.021 0.482-0.085 0.762-0.319v0l2.364-1.969c0.275-0.229 0.425-0.459 0.451-0.692 0.021-0.228-0.085-0.482-0.319-0.762v0l-3.582-4.299 1.695-1.412 5.072 6.087c0.233 0.28 0.464 0.43 0.691 0.451 0.228 0.021 0.482-0.085 0.762-0.318v0l2.581-2.151c0.28-0.233 0.43-0.464 0.451-0.692 0.021-0.228-0.085-0.482-0.318-0.762v0l-8.525-10.231c-0.233-0.28-0.464-0.43-0.692-0.451-0.228-0.021-0.482 0.085-0.762 0.319v0l-14.289 11.906c-0.28 0.233-0.43 0.464-0.451 0.692-0.021 0.228 0.085 0.482 0.319 0.761zM35.047 225.317l6.011 7.214-0.225 0.188-6.193-7.432 11.91-9.924 6.193 7.433-0.225 0.188-6.012-7.215-5.527 4.605 4.521 5.427-0.225 0.188-4.522-5.427z" fill="#8b3c7f" data-fill-palette-color="primary"></path><path d="M70.99 263.374l-9.517-5.556c-0.396-0.231-0.63-0.493-0.702-0.785-0.075-0.286 0.003-0.627 0.234-1.023v0l9.377-16.062c0.126-0.216 0.26-0.379 0.404-0.491 0.141-0.121 0.298-0.197 0.473-0.228v0l4.775-0.833c0.119-0.016 0.263-0.003 0.432 0.042 0.164 0.041 0.327 0.109 0.49 0.204v0l7.909 4.617c1.719 1.003 2.789 2.074 3.211 3.21 0.419 1.143 0.232 2.393-0.56 3.751v0l-0.694 1.188c-0.337 0.577-0.704 1.026-1.103 1.348-0.399 0.322-0.829 0.516-1.29 0.583v0l-0.104-0.002c0.782 0.722 1.203 1.538 1.265 2.449 0.068 0.914-0.237 1.951-0.914 3.111v0l-1.331 2.281c-0.432 0.74-0.914 1.318-1.446 1.734-0.528 0.41-1.114 0.67-1.756 0.779v0l-4.775 0.833c-0.618 0.108-1.289 0.068-2.014-0.121-0.731-0.193-1.519-0.535-2.364-1.029zM66.396 256.732l9.517 5.555c1.637 0.956 3.041 1.334 4.212 1.135 1.168-0.208 2.157-1.006 2.966-2.392v0l1.332-2.281c0.704-1.206 0.983-2.273 0.838-3.202-0.14-0.925-0.711-1.747-1.713-2.465v0c0.621 0.074 1.179-0.038 1.672-0.336 0.494-0.298 0.943-0.793 1.348-1.486v0l0.694-1.188c0.752-1.288 0.922-2.469 0.511-3.545-0.414-1.07-1.431-2.078-3.051-3.023v0l-7.908-4.618c-0.315-0.184-0.583-0.246-0.804-0.188-0.221 0.058-0.424 0.245-0.608 0.559v0l-9.377 16.063c-0.184 0.315-0.246 0.583-0.189 0.804 0.058 0.221 0.245 0.424 0.56 0.608zM76.226 259.482v0l-6.668-3.892 7.816-13.388 5.025 2.933c0.682 0.398 1.194 0.791 1.538 1.179 0.349 0.392 0.571 0.775 0.665 1.15 0.09 0.381 0.084 0.752-0.018 1.114-0.099 0.356-0.255 0.718-0.47 1.085v0l-0.923 1.582c-0.289 0.495-0.642 0.899-1.058 1.21-0.416 0.312-1.033 0.35-1.849 0.116v0c0.682 0.398 1.196 0.796 1.542 1.193 0.344 0.388 0.557 0.778 0.64 1.171 0.083 0.392 0.06 0.781-0.071 1.165-0.128 0.394-0.313 0.797-0.554 1.212v0l-0.924 1.581c-0.214 0.367-0.451 0.678-0.709 0.934-0.258 0.255-0.561 0.426-0.908 0.512-0.353 0.083-0.778 0.061-1.275-0.064-0.506-0.124-1.106-0.388-1.799-0.793zM82.251 245.389v0l-4.78-2.791-3.628 6.213 4.781 2.791c0.682 0.398 1.256 0.651 1.724 0.76 0.468 0.109 0.865 0.118 1.19 0.028 0.329-0.081 0.602-0.242 0.821-0.482 0.218-0.24 0.414-0.508 0.587-0.806v0l0.924-1.581c0.388-0.664 0.524-1.339 0.407-2.024-0.11-0.681-0.785-1.384-2.026-2.109zM77.478 248.507l1.561-2.674 2.106 1.23c0.315 0.184 0.503 0.403 0.565 0.658 0.059 0.261-0.007 0.554-0.198 0.88v0l-0.408 0.699c-0.194 0.332-0.417 0.534-0.67 0.605-0.253 0.071-0.536 0.015-0.85-0.168v0zM80.136 252.825v0l-6.441-3.76-3.744 6.414 6.423 3.75c1.235 0.721 2.162 0.993 2.781 0.815 0.617-0.187 1.122-0.618 1.517-1.293v0l0.924-1.582c0.435-0.746 0.611-1.475 0.527-2.188-0.084-0.713-0.746-1.432-1.987-2.156zM73.539 255.254l1.709-2.928 3.225 1.883c0.315 0.184 0.505 0.4 0.57 0.649 0.065 0.249 0.001 0.54-0.193 0.872v0l-0.561 0.961c-0.194 0.332-0.417 0.534-0.67 0.605-0.256 0.077-0.541 0.024-0.855-0.16v0z" fill="#8b3c7f" data-fill-palette-color="primary"></path><path d="M115.242 279.632v0c-1.827-0.319-3.296-0.775-4.404-1.366-1.109-0.591-1.939-1.267-2.491-2.028-0.546-0.753-0.873-1.567-0.981-2.441-0.114-0.876-0.094-1.756 0.061-2.64v0l2.299-13.148c0.043-0.246 0.112-0.446 0.207-0.601 0.097-0.161 0.221-0.287 0.374-0.376v0l4.187-2.442c0.106-0.057 0.243-0.095 0.41-0.113 0.168-0.019 0.348-0.011 0.541 0.022v0l4.436 0.776c0.452 0.079 0.763 0.239 0.932 0.481 0.177 0.243 0.225 0.591 0.147 1.043v0l-2.253 12.888c-0.03 0.173-0.031 0.334-0.003 0.483 0.035 0.15 0.139 0.281 0.312 0.393v0l1.854-10.606c0.043-0.246 0.106-0.447 0.188-0.604 0.09-0.162 0.2-0.28 0.329-0.353v0l0.035-0.025 4.216-2.437c0.106-0.057 0.236-0.096 0.391-0.117 0.161-0.02 0.344-0.012 0.55 0.025v0l4.296 0.751c0.452 0.079 0.766 0.24 0.943 0.483 0.17 0.242 0.215 0.589 0.137 1.041v0l-2.447 13.995c-0.151 0.864-0.414 1.643-0.789 2.338-0.375 0.695-0.927 1.249-1.657 1.662v0l-4.211 2.407c-0.757 0.45-1.747 0.729-2.971 0.837-1.224 0.108-2.77-0.001-4.638-0.328zM129.229 272.667v0l2.447-13.995c0.063-0.359 0.025-0.633-0.114-0.821-0.132-0.187-0.377-0.312-0.735-0.375v0l-4.297-0.751c-0.359-0.063-0.632-0.028-0.819 0.103-0.187 0.132-0.312 0.377-0.375 0.736v0l-2.253 12.888c-0.066 0.379-0.261 0.67-0.585 0.874-0.331 0.209-0.995 0.227-1.991 0.053v0c-0.984-0.172-1.592-0.412-1.826-0.72-0.242-0.302-0.329-0.643-0.263-1.022v0l2.253-12.889c0.063-0.359 0.028-0.632-0.104-0.819-0.132-0.187-0.377-0.312-0.735-0.375v0l-4.436-0.776c-0.359-0.063-0.632-0.028-0.819 0.103-0.187 0.132-0.312 0.377-0.376 0.736v0l-2.446 13.995c-0.151 0.864-0.162 1.673-0.034 2.429 0.129 0.749 0.476 1.429 1.04 2.041 0.564 0.612 1.386 1.16 2.466 1.644 1.08 0.483 2.497 0.878 4.251 1.184v0c1.754 0.307 3.221 0.416 4.401 0.328 1.18-0.088 2.139-0.325 2.877-0.709 0.738-0.385 1.295-0.907 1.671-1.567 0.383-0.666 0.651-1.431 0.802-2.295zM114.983 269.478l2.062-11.792 0.279 0.049-2.062 11.792c-0.185 1.057 0.038 1.976 0.669 2.757 0.632 0.775 1.994 1.345 4.087 1.711v0c2.093 0.366 3.572 0.292 4.436-0.221 0.871-0.519 1.399-1.307 1.584-2.363v0l2.061-11.792 0.28 0.048-2.062 11.793c-0.198 1.13-0.753 1.978-1.667 2.543-0.915 0.573-2.476 0.666-4.682 0.281v0c-2.206-0.386-3.639-1.003-4.299-1.851-0.654-0.84-0.883-1.825-0.686-2.955z" fill="#8b3c7f" data-fill-palette-color="primary"></path><path d="M167.3 278.965v0l-4.566 0.851c-0.451 0.084-0.799 0.039-1.044-0.135-0.251-0.166-0.418-0.475-0.502-0.926v0l-2.527-13.569-3.86 0.719c-0.451 0.084-0.798 0.042-1.042-0.125-0.252-0.173-0.42-0.485-0.504-0.936v0l-0.636-3.412c-0.046-0.245-0.051-0.457-0.015-0.635 0.034-0.185 0.107-0.346 0.219-0.484v0l3.068-3.752c0.079-0.09 0.194-0.173 0.345-0.249 0.151-0.076 0.322-0.132 0.514-0.168v0l14.893-2.774c0.451-0.084 0.802-0.043 1.052 0.123 0.244 0.167 0.408 0.476 0.492 0.928v0l0.635 3.412c0.046 0.245 0.051 0.46 0.018 0.645-0.035 0.178-0.109 0.336-0.221 0.474v0l-3.104 3.727c-0.058 0.093-0.162 0.181-0.311 0.264-0.148 0.089-0.318 0.152-0.511 0.188v0l-0.219 0.041 1.955 10.495c0.046 0.245 0.051 0.457 0.016 0.635-0.034 0.185-0.107 0.346-0.219 0.484v0l-3.104 3.728c-0.059 0.087-0.163 0.174-0.311 0.263-0.148 0.089-0.318 0.152-0.511 0.188zM165.749 275.775l4.566-0.85c0.358-0.067 0.602-0.194 0.732-0.384 0.13-0.189 0.161-0.462 0.094-0.82v0l-2.581-13.858 4.148-0.773c0.358-0.067 0.602-0.194 0.732-0.383 0.13-0.189 0.161-0.462 0.094-0.82v0l-0.636-3.413c-0.067-0.358-0.194-0.602-0.383-0.731-0.189-0.13-0.462-0.161-0.82-0.094v0l-14.893 2.774c-0.358 0.067-0.602 0.194-0.731 0.383-0.13 0.189-0.161 0.462-0.095 0.82v0l0.636 3.412c0.067 0.358 0.194 0.602 0.383 0.732 0.189 0.13 0.462 0.161 0.821 0.094v0l4.148-0.773 2.581 13.858c0.067 0.358 0.194 0.602 0.384 0.732 0.189 0.13 0.462 0.161 0.82 0.094zM167.704 272.786l-0.289 0.054-2.785-14.952-5.78 1.076-0.053-0.288 11.848-2.207 0.054 0.288-5.78 1.077z" fill="#8b3c7f" data-fill-palette-color="primary"></path><path d="M204.875 241.885v0l-5.405 3.145 4.168 7.164 5.405-3.145c1.026-0.597 1.567-1.244 1.623-1.939 0.061-0.699-0.172-1.504-0.702-2.414v0l-1.012-1.74c-0.441-0.758-1.011-1.254-1.709-1.488-0.704-0.23-1.493-0.091-2.368 0.417zM205.144 248.625l-1.848-3.175 1.863-1.084c0.426-0.248 0.78-0.302 1.065-0.163 0.275 0.137 0.509 0.371 0.702 0.704v0l0.488 0.84c0.193 0.332 0.282 0.652 0.265 0.958-0.023 0.31-0.247 0.589-0.672 0.836v0zM203.77 252.421l3.349 5.756-0.254 0.147-7.796-13.4 5.659-3.292c0.956-0.556 1.824-0.702 2.602-0.437 0.776 0.274 1.398 0.814 1.867 1.618v0l0.997 1.715c0.444 0.764 0.708 1.445 0.792 2.044 0.087 0.605-0.115 1.171-0.605 1.698v0l0.271-0.157c1.009-0.587 1.893-0.797 2.654-0.631 0.76 0.166 1.391 0.681 1.894 1.544v0l1.933 3.324-0.245 0.142-1.933-3.323c-0.472-0.811-1.051-1.289-1.737-1.437-0.677-0.144-1.488 0.058-2.433 0.608v0zM206.378 261.593l3.823-2.224c0.315-0.183 0.502-0.385 0.56-0.607 0.059-0.221-0.004-0.489-0.187-0.804v0l-2.83-4.864 3.473-2.02c0.35-0.204 0.646-0.259 0.887-0.165 0.242 0.094 0.468 0.321 0.678 0.683v0l2.209 3.796c0.183 0.315 0.385 0.502 0.606 0.56 0.221 0.059 0.489-0.004 0.805-0.187v0l3.84-2.234c0.315-0.183 0.502-0.385 0.56-0.607 0.064-0.225 0.005-0.495-0.179-0.81v0l-3.058-5.256c-0.607-1.044-1.371-1.719-2.291-2.027-0.92-0.307-1.858-0.25-2.814 0.174v0c0.388-0.514 0.546-1.075 0.473-1.681-0.081-0.609-0.323-1.26-0.726-1.954v0l-0.662-1.137c-0.712-1.225-1.642-2.018-2.79-2.38-1.153-0.359-2.657 0.001-4.512 1.079v0l-8.256 4.804c-0.315 0.183-0.502 0.385-0.56 0.607-0.059 0.221 0.004 0.489 0.187 0.804v0l9.353 16.077c0.183 0.315 0.385 0.502 0.607 0.56 0.221 0.059 0.489-0.004 0.804-0.187zM211.012 258.932v0l-1.671 4.554c-0.033 0.105-0.104 0.224-0.213 0.358-0.109 0.134-0.246 0.248-0.409 0.344v0l-3.822 2.224c-0.397 0.231-0.739 0.305-1.029 0.223-0.286-0.076-0.544-0.312-0.775-0.708v0l-9.353-16.076c-0.126-0.216-0.202-0.413-0.228-0.593-0.036-0.182-0.024-0.357 0.035-0.524v0l1.628-4.565c0.044-0.112 0.127-0.23 0.25-0.356 0.116-0.122 0.256-0.231 0.419-0.326v0l8.257-4.804c1.971-1.147 3.558-1.524 4.762-1.131 1.204 0.392 2.182 1.236 2.936 2.53v0l0.661 1.137c0.356 0.612 0.591 1.19 0.704 1.733 0.119 0.54 0.094 1.046-0.076 1.519v0l-0.026 0.015c0.901-0.235 1.776-0.167 2.625 0.206 0.846 0.367 1.553 1.04 2.123 2.019v0l3.058 5.257c0.126 0.216 0.202 0.413 0.228 0.593 0.03 0.186 0.015 0.362-0.043 0.529v0l-1.662 4.549c-0.033 0.105-0.104 0.224-0.213 0.358-0.109 0.134-0.246 0.248-0.409 0.344v0l-3.848 2.239c-0.397 0.231-0.739 0.305-1.029 0.224-0.292-0.072-0.553-0.307-0.784-0.704v0l-2.208-3.796c-0.153-0.262-0.319-0.435-0.5-0.517-0.181-0.082-0.402-0.047-0.665 0.106v0l-0.026 0.015 1.109 1.907c0.126 0.216 0.202 0.413 0.229 0.593 0.03 0.186 0.018 0.36-0.035 0.524z" fill="#8b3c7f" data-fill-palette-color="primary"></path><path d="M253.066 226.902v0l-7.874 9.351c-0.295 0.351-0.595 0.539-0.899 0.565-0.295 0.025-0.617-0.11-0.968-0.405v0l-2.609-2.197c-0.191-0.161-0.332-0.323-0.422-0.488-0.086-0.16-0.129-0.329-0.13-0.506v0l-0.009-4.545-4.892-4.12-1.643 1.951c-0.295 0.351-0.593 0.542-0.891 0.572-0.3 0.021-0.625-0.116-0.977-0.412v0l-2.655-2.235c-0.191-0.161-0.329-0.321-0.414-0.482-0.091-0.165-0.136-0.335-0.138-0.512v0l-0.006-4.848c0.004-0.12 0.04-0.257 0.109-0.411 0.068-0.154 0.165-0.306 0.291-0.456v0l7.874-9.35c0.295-0.351 0.591-0.539 0.885-0.565 0.295-0.025 0.617 0.11 0.968 0.406v0l2.655 2.235c0.191 0.161 0.332 0.323 0.423 0.488 0.086 0.16 0.131 0.326 0.136 0.499v0l-0.005 4.467 4.938 4.159 1.61-1.912c0.295-0.351 0.591-0.539 0.886-0.565 0.295-0.025 0.617 0.11 0.968 0.406v0l2.616 2.203c0.191 0.161 0.329 0.321 0.415 0.481 0.091 0.165 0.139 0.333 0.144 0.505v0l-0.037 4.851c0.009 0.105-0.018 0.241-0.08 0.409-0.058 0.163-0.148 0.317-0.269 0.461zM244.962 231.216v0l7.873-9.35c0.235-0.279 0.342-0.532 0.323-0.76-0.02-0.228-0.169-0.46-0.447-0.695v0l-2.616-2.203c-0.279-0.235-0.532-0.342-0.761-0.322-0.228 0.02-0.46 0.169-0.694 0.447v0l-1.792 2.129-7.377-6.212 1.792-2.129c0.235-0.279 0.342-0.532 0.323-0.76-0.02-0.228-0.169-0.46-0.447-0.694v0l-2.655-2.236c-0.279-0.235-0.532-0.342-0.76-0.322-0.228 0.02-0.46 0.169-0.695 0.447v0l-7.873 9.351c-0.235 0.279-0.342 0.532-0.323 0.76 0.015 0.233 0.162 0.467 0.441 0.702v0l2.655 2.235c0.279 0.235 0.534 0.34 0.767 0.315 0.228-0.02 0.46-0.169 0.694-0.447v0l1.825-2.167 7.376 6.211-1.825 2.168c-0.235 0.279-0.342 0.532-0.322 0.76 0.015 0.233 0.162 0.467 0.441 0.702v0l2.616 2.203c0.279 0.235 0.534 0.34 0.767 0.315 0.228-0.02 0.46-0.169 0.694-0.448zM249.64 221.199l0.224 0.189-5.879 6.982-0.224-0.189 2.861-3.398-11.409-9.608-2.862 3.398-0.224-0.189 5.879-6.982 0.224 0.189-2.828 3.36 11.409 9.607z" fill="#8b3c7f" data-fill-palette-color="primary"></path><path d="M266.385 188.797v0l1.213 0.455-0.1 0.265-1.212-0.455c-0.392-0.147-0.76-0.299-1.104-0.457-0.338-0.156-0.609-0.394-0.813-0.716v0l-3.193-4.883-5.57 1.595c-0.358 0.089-0.719 0.083-1.085-0.018-0.362-0.092-0.738-0.212-1.13-0.359v0l-0.407-0.153 0.099-0.265 0.408 0.153c0.373 0.14 0.737 0.255 1.091 0.345 0.355 0.09 0.692 0.094 1.012 0.012v0l5.557-1.59 1.202-3.202-3.179-4.749c-0.186-0.272-0.443-0.49-0.77-0.656-0.329-0.16-0.68-0.309-1.053-0.449v0l-0.407-0.153 0.103-0.275 0.407 0.153c0.392 0.147 0.754 0.305 1.087 0.473 0.342 0.164 0.617 0.401 0.826 0.709v0l3.218 4.818 5.546-1.529c0.36-0.095 0.72-0.094 1.079 0.005 0.368 0.095 0.748 0.216 1.139 0.362v0l1.213 0.455-0.104 0.275-1.212-0.455c-0.373-0.14-0.735-0.258-1.089-0.354-0.355-0.09-0.692-0.094-1.011-0.012v0l-5.529 1.513-1.209 3.222 3.158 4.805c0.167 0.265 0.418 0.481 0.751 0.649 0.339 0.171 0.696 0.326 1.068 0.466zM270.128 186.916v0l-2.662-0.999c-0.177-0.066-0.36-0.146-0.549-0.238-0.197-0.088-0.361-0.229-0.49-0.422v0l-1.241-1.849c-0.118-0.167-0.198-0.308-0.24-0.425-0.036-0.115-0.027-0.244 0.027-0.39v0l0.142-0.379c0.052-0.139 0.13-0.24 0.233-0.302 0.111-0.066 0.266-0.124 0.464-0.172v0l2.137-0.538c0.224-0.06 0.441-0.062 0.65-0.005 0.203 0.055 0.393 0.115 0.57 0.182v0l2.662 0.999c0.341 0.128 0.616 0.145 0.824 0.05 0.208-0.095 0.377-0.313 0.505-0.654v0l1.532-4.084c0.128-0.341 0.145-0.616 0.05-0.824-0.095-0.208-0.313-0.377-0.654-0.505v0l-2.88-1.08c-0.821-0.308-1.462-0.473-1.922-0.495-0.467-0.024-1.052 0.067-1.755 0.271v0l-3.727 1.088-2.138-3.288c-0.409-0.6-0.791-1.05-1.147-1.349-0.358-0.293-0.951-0.595-1.779-0.906v0l-2.066-0.774c-0.341-0.128-0.616-0.145-0.824-0.05-0.208 0.095-0.377 0.313-0.505 0.653v0l-1.532 4.084c-0.128 0.341-0.145 0.616-0.05 0.824 0.095 0.208 0.313 0.377 0.654 0.505v0l1.857 0.696c0.177 0.066 0.36 0.146 0.548 0.239 0.189 0.092 0.351 0.236 0.487 0.431v0l1.235 1.836c0.105 0.162 0.182 0.302 0.231 0.421 0.047 0.126 0.044 0.258-0.009 0.397v0l-0.12 0.322c-0.055 0.145-0.142 0.253-0.262 0.324-0.118 0.064-0.266 0.113-0.444 0.146v0l-2.131 0.552c-0.231 0.058-0.447 0.059-0.65 0.005-0.203-0.055-0.393-0.115-0.57-0.182v0l-1.857-0.696c-0.341-0.128-0.616-0.145-0.824-0.05-0.208 0.095-0.377 0.313-0.505 0.653v0l-1.553 4.141c-0.126 0.335-0.142 0.61-0.05 0.824 0.095 0.208 0.313 0.377 0.653 0.505v0l2.066 0.775c0.827 0.31 1.472 0.473 1.935 0.488 0.46 0.021 1.045-0.069 1.755-0.271v0l3.745-1.081 2.12 3.281c0.403 0.598 0.785 1.048 1.147 1.35 0.356 0.299 0.945 0.603 1.766 0.911v0l2.88 1.08c0.341 0.128 0.616 0.145 0.824 0.05 0.211-0.101 0.379-0.319 0.505-0.653v0l1.536-4.093c0.126-0.335 0.142-0.61 0.05-0.825-0.095-0.208-0.313-0.377-0.654-0.504zM271.08 187.403v0l1.591 4.574c0.041 0.102 0.062 0.239 0.062 0.412 0 0.173-0.033 0.348-0.1 0.525v0l-1.532 4.083c-0.161 0.429-0.381 0.707-0.659 0.834-0.269 0.122-0.619 0.103-1.048-0.058v0l-2.871-1.077c-0.878-0.329-1.504-0.647-1.879-0.954-0.384-0.302-0.778-0.778-1.183-1.427v0l-1.991-3.104-3.551 1.024c-0.732 0.223-1.339 0.323-1.821 0.3-0.484-0.016-1.165-0.189-2.043-0.518v0l-2.075-0.778c-0.234-0.088-0.418-0.193-0.552-0.315-0.141-0.125-0.241-0.27-0.3-0.437v0l-1.627-4.566c-0.036-0.115-0.048-0.256-0.035-0.424 0.013-0.168 0.052-0.341 0.118-0.518v0l1.554-4.14c0.161-0.429 0.378-0.709 0.649-0.837 0.269-0.122 0.619-0.103 1.048 0.058v0l1.857 0.697c0.158 0.059 0.323 0.118 0.496 0.175 0.175 0.051 0.356 0.051 0.542-0.002v0l0.536-0.134-0.322-0.121c-0.234-0.088-0.418-0.193-0.552-0.315-0.141-0.125-0.242-0.267-0.304-0.428v0l-1.627-4.566c-0.034-0.121-0.045-0.265-0.032-0.433 0.013-0.168 0.052-0.341 0.119-0.518v0l1.532-4.083c0.161-0.429 0.376-0.705 0.646-0.828 0.272-0.129 0.622-0.112 1.052 0.049v0l2.065 0.775c0.878 0.329 1.504 0.647 1.879 0.954 0.375 0.306 0.769 0.782 1.183 1.427v0l2.02 3.114 3.523-1.034c0.73-0.216 1.336-0.316 1.82-0.301 0.484 0.016 1.165 0.189 2.043 0.518v0l2.88 1.081c0.234 0.088 0.418 0.193 0.552 0.315 0.141 0.125 0.241 0.27 0.301 0.437v0l1.587 4.584c0.043 0.096 0.065 0.23 0.065 0.402 0 0.173-0.034 0.351-0.103 0.535v0l-1.532 4.083c-0.161 0.429-0.38 0.704-0.655 0.824-0.269 0.122-0.619 0.103-1.048-0.058v0l-2.662-0.999c-0.158-0.059-0.321-0.113-0.491-0.162-0.16-0.053-0.343-0.057-0.547-0.011v0l-0.615 0.169 1.185 0.445c0.234 0.088 0.418 0.193 0.551 0.315 0.141 0.125 0.241 0.27 0.301 0.437z" fill="#8b3c7f" data-fill-palette-color="primary"></path><path d="M10.283 138.044c0-1.542 1.25-2.792 2.792-2.793 1.542 0 2.792 1.25 2.793 2.793 0 1.542-1.25 2.792-2.793 2.792-1.542 0-2.792-1.25-2.792-2.792z" fill="#8b3c7f" data-fill-palette-color="primary"></path><path d="M265.294 138.044c0-1.542 1.25-2.792 2.792-2.793 1.542 0 2.792 1.25 2.793 2.793 0 1.542-1.25 2.792-2.793 2.792-1.542 0-2.792-1.25-2.792-2.792z" fill="#8b3c7f" data-fill-palette-color="primary"></path></g></svg></g></svg></g></svg></g></svg></g><defs></defs></svg><rect width="280" height="280" fill="none" stroke="none" visibility="hidden"></rect></g></svg></g></svg>