<svg xmlns="http://www.w3.org/2000/svg" version="1.1" xmlns:xlink="http://www.w3.org/1999/xlink" xmlns:svgjs="http://svgjs.dev/svgjs" width="2000" height="2000" viewBox="0 0 2000 2000"><g transform="matrix(1,0,0,1,0,0)"><svg viewBox="0 0 280 280" data-background-color="#ffffff" preserveAspectRatio="xMidYMid meet" height="2000" width="2000" xmlns="http://www.w3.org/2000/svg" xmlns:xlink="http://www.w3.org/1999/xlink"><g id="tight-bounds" transform="matrix(1,0,0,1,0,0)"><svg viewBox="0 0 280 280" height="280" width="280"><g><svg viewBox="0 0 280 280" height="280" width="280"><g><svg viewBox="0 0 280 280" height="280" width="280"><g id="textblocktransform"><svg viewBox="0 0 280 280" height="280" width="280" id="textblock"><g><svg viewBox="0 0 280 280" height="280" width="280"><g transform="matrix(1,0,0,1,74.53985021384942,64.76383848175135)"><svg viewBox="0 0 130.92029957230116 150.4723230364973" height="150.4723230364973" width="130.92029957230116"><g id="icon-0"><svg xmlns="http://www.w3.org/2000/svg" data-name="Layer 2" viewBox="14.013830044475945 8.590270245597067 72.14616995552404 82.92069164872625" x="0" y="0" height="150.4723230364973" width="130.92029957230116" class="icon-xg-0" data-fill-palette-color="accent" id="xg-0"><path d="M86.1 70.33a1.48 1.48 0 0 0 0-0.27s0 0 0-0.06V30s0 0 0-0.06a1.48 1.48 0 0 0 0-0.27l0-0.1a1.49 1.49 0 0 0-0.13-0.32h0a1.49 1.49 0 0 0-0.21-0.28l-0.07-0.06a1.48 1.48 0 0 0-0.22-0.17l0 0L50.75 8.7l-0.05 0-0.25-0.1-0.09 0a1.49 1.49 0 0 0-0.34 0h0a1.49 1.49 0 0 0-0.34 0l-0.09 0-0.25 0.1-0.05 0-34.64 20 0 0a1.48 1.48 0 0 0-0.22 0.17l-0.07 0.06a1.49 1.49 0 0 0-0.21 0.28h0a1.49 1.49 0 0 0-0.13 0.32l0 0.1a1.48 1.48 0 0 0 0 0.27s0 0 0 0.06V70s0 0 0 0.06a1.48 1.48 0 0 0 0 0.27l0 0.1a1.44 1.44 0 0 0 0.38 0.64 1.47 1.47 0 0 0 0.22 0.17l0.09 0.07h0l34.63 20a1.5 1.5 0 0 0 1.5 0l34.63-20h0l0.09-0.07a1.46 1.46 0 0 0 0.22-0.17 1.44 1.44 0 0 0 0.38-0.64ZM50 88.27L18.36 70 29.6 63.51a1.5 1.5 0 0 0-1.5-2.6L16.86 67.4V32.6l1.84 1.06a1.5 1.5 0 1 0 1.5-2.6L18.36 30 48.5 12.6v3.24a1.5 1.5 0 0 0 3 0V12.6L81.64 30l-1.27 0.73a1.5 1.5 0 1 0 1.5 2.6l1.27-0.73V67.4l-8.72-5a1.5 1.5 0 1 0-1.5 2.6l8.72 5ZM47 50L35.15 43.16a1.5 1.5 0 0 1 1.5-2.6L48.5 47.4V34.83a1.5 1.5 0 0 1 3 0V47.4l12.42-7.17a1.5 1.5 0 1 1 1.5 2.6L53 50l5 2.87a1.5 1.5 0 1 1-1.5 2.6l-5-2.87V71.33a1.5 1.5 0 0 1-3 0V52.6L46.05 54a1.5 1.5 0 0 1-1.5-2.6Zm21.39 4.89L72.8 41.77h0.1a5 5 0 1 0-3.59-8.47L54.92 26.12a5 5 0 0 0 0.08-0.78 5 5 0 1 0-9.91 0.89l-13.9 7.33a5 5 0 1 0-3.51 8.55A4.92 4.92 0 0 0 28.3 42l5.42 11.73a5 5 0 0 0 4.35 8.58l8.31 15a5 5 0 1 0 7.57 0.42l10-14.16a4.93 4.93 0 0 0 1.51 0.26 5 5 0 0 0 2.94-9ZM72.9 34.78a2 2 0 1 1-2 2A2 2 0 0 1 72.9 34.78ZM50 23.33a2 2 0 1 1-2 2A2 2 0 0 1 50 23.33ZM25.67 37.11a2 2 0 1 1 2 2A2 2 0 0 1 25.67 37.11ZM31 40.79a4.85 4.85 0 0 0 1.56-4.58l13.9-7.33a5 5 0 0 0 7.1-0.08L68 36a4.79 4.79 0 0 0 2 4.81L65.55 53.93h-0.1a5 5 0 0 0-5 5 5 5 0 0 0 1 3l-10 14.16A4.93 4.93 0 0 0 50 75.83a5 5 0 0 0-1 0.1l-8.31-15a5 5 0 0 0-3.61-8.44 4.92 4.92 0 0 0-0.63 0.06Zm4.05 16.67a2 2 0 1 1 2 2A2 2 0 0 1 35.08 57.46ZM50 82.83a2 2 0 0 1-1.45-3.38 1.43 1.43 0 0 0 1.06-0.59 2 2 0 1 1 0.38 4ZM65.45 60.92a2 2 0 1 1 2-2A2 2 0 0 1 65.45 60.92Z" fill="#7a26c1" data-fill-palette-color="accent"></path></svg></g></svg></g><g id="text-0"><path d="M37.147 98.784l-3.351 9.35c-0.171 0.476-0.403 0.783-0.696 0.922-0.3 0.136-0.684 0.12-1.154-0.048v0l-3.466-1.242c-0.254-0.091-0.457-0.203-0.61-0.337-0.153-0.134-0.265-0.289-0.338-0.465v0l-1.424-3.852c-0.69 0.927-1.521 1.557-2.493 1.89-0.978 0.33-2.178 0.24-3.6-0.27v0l-3.104-1.112c-0.889-0.318-1.626-0.751-2.21-1.297-0.587-0.54-1.017-1.17-1.289-1.891v0l-1.849-5.004c-0.241-0.688-0.342-1.473-0.306-2.355 0.035-0.876 0.232-1.815 0.591-2.818v0l2.972-8.293c0.168-0.47 0.399-0.774 0.693-0.913 0.295-0.145 0.681-0.132 1.157 0.039v0l3.523 1.263c0.254 0.091 0.457 0.203 0.61 0.336 0.153 0.134 0.264 0.292 0.335 0.475v0l1.263 3.461c0.725-1.144 1.602-1.962 2.63-2.452 1.035-0.489 2.352-0.446 3.952 0.126v0l3.104 1.113c0.889 0.318 1.626 0.751 2.21 1.297 0.579 0.544 1.004 1.187 1.275 1.929v0l1.831 4.965c0.253 0.714 0.362 1.509 0.328 2.384-0.037 0.882-0.232 1.815-0.584 2.799zM31.641 103.054l3.351-9.351c0.678-1.892 0.766-3.547 0.265-4.965-0.51-1.415-1.603-2.423-3.279-3.024v0l-3.104-1.112c-1.657-0.594-2.992-0.596-4.006-0.006-1.016 0.596-1.869 1.547-2.559 2.854v0l-2.183 4.203c-0.11 0.247-0.279 0.409-0.507 0.484-0.226 0.07-0.465 0.059-0.719-0.032v0c-0.254-0.091-0.443-0.234-0.566-0.428-0.115-0.199-0.127-0.425-0.036-0.679v0l2.473-6.904c0.134-0.375 0.145-0.675 0.033-0.901-0.104-0.231-0.343-0.413-0.717-0.547v0l-3.523-1.263c-0.375-0.134-0.675-0.145-0.901-0.033-0.231 0.104-0.413 0.343-0.547 0.717v0l-2.973 8.294c-0.685 1.911-0.771 3.57-0.258 4.979 0.506 1.406 1.597 2.41 3.273 3.01v0l3.113 1.116c1.657 0.594 2.988 0.598 3.993 0.012 1.011-0.583 1.863-1.531 2.556-2.844v0l2.218-4.212c0.11-0.247 0.268-0.409 0.475-0.486 0.204-0.07 0.471-0.046 0.801 0.073v0c0.241 0.086 0.422 0.223 0.541 0.409 0.124 0.195 0.14 0.419 0.049 0.672v0l-2.852 7.961c-0.134 0.375-0.15 0.677-0.046 0.907 0.106 0.224 0.346 0.403 0.72 0.538v0l3.466 1.242c0.375 0.134 0.677 0.15 0.908 0.046 0.226-0.112 0.407-0.356 0.541-0.73zM14.854 91.193l2.354-6.57 0.296 0.105-2.355 6.57c-0.298 0.832-0.309 1.572-0.034 2.223 0.28 0.659 0.765 1.112 1.458 1.36v0l2.428 0.871c0.686 0.246 1.217 0.282 1.594 0.109 0.373-0.181 0.682-0.483 0.925-0.904v0l3.505-5.792c0.332-0.547 0.764-0.944 1.297-1.19 0.532-0.246 1.313-0.185 2.341 0.183v0l1.714 0.614c0.87 0.312 1.48 0.867 1.831 1.667 0.347 0.791 0.341 1.687-0.019 2.69v0l-2.641 7.37-0.295-0.106 2.641-7.37c0.325-0.908 0.334-1.721 0.026-2.44-0.306-0.726-0.855-1.231-1.649-1.515v0l-1.714-0.615c-0.927-0.332-1.621-0.395-2.082-0.187-0.465 0.199-0.854 0.554-1.166 1.065v0l-3.514 5.789c-0.286 0.478-0.639 0.824-1.06 1.038-0.421 0.215-1.034 0.177-1.84-0.111v0l-2.428-0.87c-0.793-0.284-1.342-0.793-1.646-1.525-0.304-0.732-0.293-1.552 0.033-2.459z" fill="#7a26c1" data-fill-palette-color="primary"></path><path d="M40.439 76.949l-0.167 0.266-14.352-9.061 0.168-0.265 7.047 4.449 6.442-10.203-7.048-4.449 0.167-0.266 14.352 9.061-0.167 0.265-7.039-4.444-6.442 10.204zM41.457 80.642l2.603-4.122c0.212-0.336 0.291-0.626 0.236-0.868-0.06-0.245-0.259-0.474-0.595-0.686v0l-5.901-3.726 2.807-4.447 5.902 3.725c0.336 0.212 0.628 0.293 0.876 0.242 0.242-0.055 0.469-0.25 0.681-0.587v0l2.603-4.122c0.212-0.336 0.293-0.628 0.242-0.876-0.06-0.245-0.259-0.474-0.596-0.687v0l-17.225-10.874c-0.336-0.212-0.626-0.291-0.867-0.237-0.251 0.057-0.483 0.253-0.696 0.59v0l-2.602 4.123c-0.212 0.336-0.288 0.627-0.228 0.872 0.055 0.242 0.25 0.469 0.586 0.682v0l5.765 3.639-2.808 4.447-5.764-3.639c-0.336-0.212-0.626-0.291-0.868-0.236-0.248 0.051-0.477 0.245-0.69 0.581v0l-2.602 4.122c-0.212 0.336-0.29 0.63-0.234 0.882 0.055 0.242 0.25 0.469 0.587 0.681v0l17.226 10.874c0.336 0.212 0.628 0.293 0.875 0.242 0.245-0.06 0.474-0.259 0.687-0.595zM44.62 75.689v0l0.692 5.27c0.025 0.112 0.018 0.262-0.022 0.452-0.042 0.181-0.119 0.359-0.231 0.536v0l-2.602 4.123c-0.27 0.428-0.563 0.677-0.88 0.748-0.322 0.068-0.694-0.031-1.116-0.297v0l-17.225-10.875c-0.234-0.148-0.411-0.303-0.531-0.466-0.12-0.164-0.194-0.338-0.22-0.523v0l-0.735-5.26c-0.011-0.134 0.008-0.29 0.056-0.467 0.052-0.183 0.133-0.363 0.245-0.539v0l2.602-4.123c0.266-0.422 0.558-0.669 0.874-0.74 0.32-0.077 0.694 0.019 1.121 0.289v0l5.5 3.472 0.297-0.47-2.6-1.642c-0.234-0.148-0.411-0.303-0.531-0.466-0.12-0.164-0.192-0.34-0.215-0.531v0l-0.734-5.26c-0.011-0.134 0.008-0.29 0.055-0.467 0.048-0.177 0.128-0.354 0.24-0.531v0l2.602-4.122c0.27-0.428 0.563-0.677 0.879-0.749 0.316-0.071 0.688 0.028 1.116 0.298v0l17.226 10.874c0.234 0.148 0.408 0.301 0.522 0.461 0.12 0.164 0.196 0.339 0.229 0.528v0l0.693 5.269c0.022 0.117 0.014 0.268-0.023 0.453-0.046 0.186-0.125 0.368-0.236 0.544v0l-2.602 4.123c-0.266 0.422-0.558 0.669-0.874 0.74-0.326 0.074-0.699-0.023-1.122-0.289v0l-5.636-3.558-0.297 0.47 2.737 1.728c0.234 0.148 0.408 0.301 0.522 0.461 0.12 0.164 0.195 0.342 0.224 0.536z" fill="#7a26c1" data-fill-palette-color="primary"></path><path d="M52.374 50.643v0l0.683 0.705 8.809-8.526-0.683-0.705c-0.394-0.407-0.791-0.75-1.192-1.028-0.405-0.283-0.807-0.523-1.204-0.72v0l-5.115-2.173c-0.545-0.233-1.038-0.394-1.48-0.482-0.433-0.088-0.86 0.072-1.281 0.48v0l-2.217 2.146c-0.451 0.436-0.639 0.872-0.565 1.307 0.079 0.44 0.221 0.922 0.427 1.444v0l2.149 5.1c0.184 0.404 0.411 0.813 0.681 1.227 0.265 0.41 0.595 0.818 0.988 1.225zM53.723 46.931l-2.259-4.457c-0.068-0.197-0.099-0.359-0.093-0.488 0.012-0.124 0.061-0.228 0.149-0.313v0l0.566-0.548c0.092-0.089 0.2-0.137 0.325-0.145 0.129-0.003 0.288 0.036 0.477 0.115v0l4.381 2.403zM66.065 46.711l-0.225 0.218-3.756-3.881-8.809 8.525 3.756 3.881-0.225 0.218-4.657-4.811c-0.408-0.422-0.749-0.842-1.024-1.261-0.275-0.419-0.511-0.852-0.708-1.299v0l-2.141-5.107c-0.243-0.581-0.399-1.115-0.468-1.603-0.063-0.492 0.159-0.985 0.668-1.477v0l2.217-2.145c0.499-0.483 0.989-0.68 1.469-0.591 0.48 0.089 1.021 0.265 1.622 0.527v0l5.122 2.179c0.44 0.212 0.865 0.462 1.275 0.751 0.41 0.288 0.819 0.643 1.228 1.064v0zM60.539 54.424v0l-3.06-3.161 3.997-3.869 3.06 3.162c0.277 0.286 0.551 0.424 0.823 0.414 0.262-0.01 0.544-0.16 0.844-0.452v0l3.416-3.306c0.286-0.277 0.431-0.539 0.435-0.787 0.004-0.257-0.132-0.529-0.409-0.815v0l-5.768-5.959c-0.441-0.455-1.018-0.906-1.73-1.352-0.708-0.45-1.594-0.92-2.659-1.41v0l-6.922-3.224c-0.341-0.168-0.664-0.221-0.97-0.159-0.301 0.057-0.595 0.224-0.881 0.5v0l-6.083 5.888c-0.3 0.291-0.486 0.588-0.559 0.892-0.067 0.299-0.022 0.622 0.135 0.968v0l2.997 7.023c0.454 1.08 0.895 1.982 1.322 2.704 0.422 0.727 0.854 1.318 1.294 1.774v0l5.768 5.96c0.277 0.286 0.544 0.431 0.801 0.435 0.248 0.004 0.515-0.132 0.801-0.409v0l3.321-3.215c0.286-0.277 0.433-0.541 0.443-0.794-0.001-0.253-0.139-0.522-0.416-0.808zM61.26 55.345l-0.58 5.291c-0.002 0.114-0.042 0.257-0.121 0.427-0.089 0.17-0.208 0.328-0.358 0.473v0l-3.322 3.215c-0.359 0.347-0.702 0.52-1.031 0.52-0.329-0.01-0.667-0.194-1.014-0.553v0l-5.775-5.968c-0.45-0.465-0.891-1.066-1.323-1.802-0.436-0.732-0.886-1.657-1.349-2.776v0l-3.005-6.988c-0.088-0.178-0.145-0.348-0.17-0.51-0.026-0.163-0.038-0.32-0.035-0.473v0l0-0.043 0.558-5.213c0.018-0.224 0.084-0.442 0.196-0.655 0.113-0.213 0.274-0.42 0.483-0.621v0l6.083-5.888c0.344-0.333 0.695-0.532 1.054-0.598 0.354-0.071 0.73-0.007 1.127 0.19v0l6.929 3.232c1.108 0.505 2.018 0.984 2.73 1.44 0.722 0.455 1.311 0.918 1.766 1.388v0l5.768 5.959c0.192 0.199 0.325 0.389 0.398 0.572 0.078 0.187 0.108 0.379 0.091 0.574v0l-0.573 5.284c-0.002 0.114-0.045 0.259-0.129 0.434-0.084 0.166-0.201 0.321-0.35 0.466v0l-3.416 3.306c-0.373 0.361-0.736 0.544-1.09 0.548-0.348-0.001-0.689-0.173-1.021-0.518v0l-2.842-2.936-0.632 0.612 0.457 0.472c0.192 0.199 0.325 0.389 0.398 0.572 0.078 0.187 0.111 0.376 0.098 0.567z" fill="#7a26c1" data-fill-palette-color="primary"></path><path d="M80.019 26.715v0c0.326-0.19 0.52-0.4 0.581-0.63 0.064-0.225 0.114-0.663 0.148-1.315v0l0.375-6.981c0-0.242 0.051-0.435 0.153-0.581 0.097-0.142 0.218-0.256 0.364-0.34v0l0.464-0.269c0.251-0.146 0.473-0.186 0.667-0.12 0.2 0.063 0.385 0.24 0.555 0.532v0l8.045 13.832-0.271 0.157-8.045-13.832c-0.085-0.146-0.193-0.258-0.325-0.337-0.132-0.079-0.288-0.066-0.469 0.039v0l-0.411 0.239c-0.128 0.075-0.226 0.155-0.293 0.24-0.073 0.089-0.109 0.255-0.109 0.497v0l-0.414 6.933c-0.042 0.679-0.094 1.159-0.158 1.438-0.07 0.282-0.303 0.539-0.699 0.769v0c-0.396 0.231-0.735 0.306-1.015 0.228-0.274-0.082-0.717-0.273-1.328-0.574v0l-6.231-3.068c-0.21-0.12-0.375-0.168-0.494-0.146-0.119 0.023-0.243 0.071-0.371 0.146v0l-0.411 0.239c-0.181 0.105-0.263 0.231-0.248 0.378 0.01 0.15 0.057 0.299 0.141 0.445v0l8.045 13.831-0.271 0.158-8.045-13.832c-0.17-0.291-0.232-0.54-0.188-0.745 0.039-0.202 0.174-0.371 0.408-0.506v0l0.463-0.27c0.146-0.085 0.31-0.137 0.493-0.158 0.183-0.021 0.38 0.029 0.59 0.149v0l6.253 3.126c0.584 0.292 0.989 0.466 1.216 0.522 0.23 0.061 0.509-0.003 0.835-0.194zM77.52 42.175l4.048-2.355c0.344-0.2 0.548-0.42 0.611-0.659 0.066-0.249-0.001-0.545-0.201-0.889v0l-5.563-9.566 3.324 2.034c0.343 0.214 0.667 0.322 0.972 0.323 0.305 0.002 0.63-0.097 0.974-0.297v0l1.084-0.63c0.344-0.2 0.591-0.433 0.74-0.7 0.149-0.266 0.216-0.601 0.199-1.005v0l-0.124-3.895 5.564 9.566c0.2 0.344 0.424 0.549 0.673 0.614 0.24 0.063 0.531-0.005 0.875-0.205v0l4.189-2.435c0.344-0.2 0.548-0.42 0.611-0.66 0.066-0.249-0.001-0.545-0.202-0.889v0l-10.241-17.609c-0.2-0.344-0.423-0.546-0.669-0.606-0.243-0.069-0.537-0.004-0.88 0.196v0l-4.407 2.563c-0.286 0.166-0.487 0.369-0.605 0.609-0.118 0.24-0.175 0.55-0.172 0.931v0l0.165 5.837c0.002 0.217-0.009 0.38-0.033 0.487-0.014 0.11-0.077 0.197-0.187 0.261v0l-0.245 0.142c-0.111 0.064-0.22 0.077-0.328 0.039-0.105-0.033-0.248-0.105-0.431-0.217v0l-5.027-3.01c-0.329-0.191-0.625-0.296-0.885-0.315-0.267-0.016-0.546 0.06-0.838 0.23v0l-4.371 2.542c-0.344 0.2-0.549 0.424-0.615 0.674-0.063 0.24 0.005 0.531 0.205 0.875v0l10.241 17.609c0.2 0.344 0.422 0.55 0.665 0.62 0.246 0.06 0.54-0.01 0.884-0.21zM82.449 39.343v0l-1.823 4.992c-0.029 0.111-0.106 0.241-0.23 0.391-0.121 0.141-0.272 0.263-0.452 0.369v0l-4.048 2.354c-0.437 0.254-0.812 0.34-1.126 0.257-0.317-0.089-0.601-0.349-0.852-0.78v0l-10.241-17.609c-0.139-0.239-0.224-0.459-0.255-0.66-0.031-0.201-0.016-0.389 0.046-0.564v0l1.782-5.004c0.053-0.124 0.141-0.254 0.265-0.388 0.13-0.138 0.286-0.26 0.467-0.365v0l4.372-2.543c0.344-0.2 0.672-0.293 0.984-0.279 0.312 0.013 0.667 0.135 1.065 0.363v0l3.827 2.314-0.005-0.57c-0.005-0.169 0-0.335 0.014-0.5 0.01-0.17 0.039-0.315 0.086-0.436v0l1.797-4.977c0.085-0.19 0.189-0.359 0.313-0.509 0.121-0.141 0.289-0.274 0.505-0.399v0l4.406-2.563c0.437-0.254 0.812-0.34 1.126-0.257 0.313 0.083 0.597 0.343 0.852 0.78v0l10.241 17.609c0.139 0.239 0.222 0.456 0.25 0.651 0.031 0.201 0.014 0.393-0.05 0.578v0l-1.823 4.993c-0.029 0.111-0.106 0.241-0.229 0.39-0.121 0.141-0.272 0.263-0.453 0.369v0l-4.188 2.436c-0.449 0.261-0.827 0.348-1.135 0.262-0.311-0.092-0.592-0.354-0.843-0.786v0l-4.175-7.178-0.822 2.269c-0.075 0.207-0.189 0.399-0.344 0.574-0.149 0.173-0.352 0.333-0.609 0.483v0l-0.349 0.203 1.454 2.501c0.139 0.239 0.222 0.456 0.25 0.65 0.031 0.201 0.014 0.393-0.05 0.579z" fill="#7a26c1" data-fill-palette-color="primary"></path><path d="M113.865 29.985v0l-12.824 3.86c-0.478 0.144-0.863 0.14-1.154-0.012-0.288-0.16-0.503-0.479-0.647-0.956v0l-1.079-3.584c-0.078-0.258-0.108-0.488-0.092-0.691 0.017-0.202 0.077-0.386 0.183-0.551v0l2.717-4.166-2.02-6.712-2.683 0.807c-0.478 0.144-0.863 0.14-1.155-0.011-0.288-0.16-0.503-0.479-0.647-0.957v0l-1.096-3.641c-0.08-0.265-0.111-0.498-0.095-0.701 0.017-0.202 0.078-0.383 0.185-0.542v0l2.896-4.452c0.074-0.107 0.19-0.212 0.348-0.316 0.152-0.102 0.329-0.183 0.529-0.244v0l12.823-3.86c0.484-0.146 0.869-0.142 1.155 0.011 0.286 0.153 0.501 0.472 0.647 0.957v0l1.097 3.642c0.078 0.258 0.108 0.488 0.091 0.69-0.017 0.202-0.074 0.385-0.173 0.549v0l-2.676 4.091 2.038 6.77 2.615-0.787c0.484-0.146 0.869-0.142 1.154 0.011 0.288 0.16 0.503 0.479 0.648 0.957v0l1.078 3.583c0.08 0.265 0.11 0.495 0.092 0.691-0.017 0.202-0.074 0.385-0.173 0.548v0l-2.933 4.432c-0.061 0.103-0.165 0.212-0.314 0.327-0.157 0.111-0.335 0.196-0.535 0.257zM103.846 29.092v0l12.824-3.86c0.381-0.115 0.633-0.282 0.757-0.503 0.115-0.225 0.116-0.528 0.001-0.908v0l-1.079-3.584c-0.115-0.381-0.281-0.63-0.499-0.747-0.227-0.122-0.531-0.125-0.912-0.011v0l-2.915 0.877-3.044-10.111 2.915-0.878c0.381-0.115 0.633-0.282 0.757-0.502 0.115-0.225 0.116-0.528 0.001-0.909v0l-1.096-3.642c-0.115-0.381-0.281-0.63-0.5-0.747-0.227-0.122-0.531-0.125-0.911-0.011v0l-12.824 3.86c-0.381 0.115-0.629 0.284-0.744 0.51-0.124 0.22-0.128 0.521-0.014 0.902v0l1.096 3.641c0.115 0.381 0.285 0.632 0.513 0.755 0.218 0.117 0.518 0.119 0.899 0.004v0l2.983-0.898 3.044 10.111-2.983 0.898c-0.381 0.115-0.629 0.284-0.745 0.509-0.124 0.22-0.128 0.521-0.014 0.902v0l1.079 3.584c0.115 0.381 0.285 0.632 0.512 0.754 0.218 0.117 0.518 0.119 0.9 0.004zM114.136 22.71l0.09 0.3-9.569 2.88-0.09-0.3 4.668-1.405-4.711-15.652-4.669 1.406-0.09-0.301 9.569-2.88 0.09 0.3-4.6 1.385 4.711 15.651z" fill="#7a26c1" data-fill-palette-color="primary"></path><path d="M132.051 27.308l-9.897 0.836c-0.504 0.043-0.88-0.041-1.128-0.25-0.248-0.216-0.394-0.572-0.436-1.069v0l-0.31-3.669c-0.023-0.269-0.005-0.5 0.053-0.694 0.058-0.194 0.152-0.361 0.283-0.501v0l2.912-2.896c-1.13-0.243-2.048-0.737-2.755-1.483-0.706-0.752-1.123-1.881-1.25-3.386v0l-0.278-3.285c-0.08-0.941 0.008-1.791 0.262-2.55 0.247-0.759 0.642-1.411 1.184-1.958v0l3.783-3.761c0.526-0.505 1.198-0.923 2.016-1.256 0.811-0.332 1.747-0.544 2.808-0.633v0l8.779-0.742c0.497-0.042 0.87 0.042 1.117 0.25 0.254 0.209 0.403 0.565 0.446 1.069v0l0.315 3.729c0.023 0.269 0.005 0.5-0.053 0.695-0.058 0.194-0.156 0.362-0.292 0.502v0l-2.624 2.586c1.342 0.184 2.45 0.642 3.324 1.374 0.874 0.738 1.383 1.954 1.526 3.647v0l0.278 3.286c0.08 0.941-0.008 1.791-0.261 2.549-0.254 0.752-0.663 1.406-1.225 1.962v0l-3.756 3.728c-0.544 0.526-1.222 0.956-2.032 1.288-0.818 0.333-1.747 0.544-2.789 0.632zM125.88 24.074l9.897-0.837c2.002-0.169 3.545-0.777 4.627-1.822 1.075-1.052 1.538-2.465 1.388-4.239v0l-0.278-3.286c-0.148-1.754-0.701-2.969-1.658-3.646-0.964-0.676-2.184-1.057-3.66-1.142v0l-4.73-0.239c-0.27 0.003-0.488-0.084-0.651-0.26-0.157-0.176-0.247-0.399-0.27-0.668v0c-0.023-0.269 0.029-0.5 0.155-0.693 0.133-0.187 0.334-0.292 0.602-0.315v0l7.307-0.617c0.396-0.034 0.674-0.148 0.834-0.345 0.167-0.19 0.233-0.483 0.2-0.879v0l-0.315-3.73c-0.034-0.396-0.148-0.674-0.345-0.833-0.19-0.167-0.483-0.233-0.88-0.2v0l-8.778 0.742c-2.022 0.171-3.568 0.782-4.636 1.833-1.069 1.045-1.528 2.454-1.379 4.228v0l0.279 3.296c0.148 1.754 0.697 2.966 1.647 3.636 0.951 0.678 2.167 1.059 3.65 1.144v0l4.752 0.268c0.27-0.003 0.483 0.074 0.639 0.23 0.149 0.157 0.238 0.41 0.267 0.759v0c0.022 0.255-0.027 0.476-0.147 0.662-0.126 0.193-0.323 0.301-0.592 0.324v0l-8.425 0.712c-0.396 0.034-0.678 0.145-0.845 0.336-0.16 0.189-0.223 0.482-0.19 0.879v0l0.311 3.668c0.034 0.396 0.145 0.678 0.335 0.845 0.196 0.159 0.492 0.222 0.889 0.189zM129.694 3.876l6.955-0.588 0.026 0.313-6.954 0.587c-0.88 0.074-1.559 0.372-2.036 0.893-0.483 0.528-0.694 1.158-0.632 1.891v0l0.217 2.57c0.061 0.726 0.249 1.224 0.563 1.495 0.32 0.264 0.722 0.419 1.207 0.467v0l6.725 0.781c0.636 0.075 1.176 0.303 1.621 0.685 0.445 0.382 0.714 1.117 0.806 2.206v0l0.153 1.814c0.078 0.921-0.174 1.706-0.755 2.358-0.575 0.644-1.393 1.011-2.455 1.101v0l-7.8 0.659-0.027-0.312 7.801-0.659c0.961-0.081 1.704-0.411 2.231-0.991 0.533-0.58 0.764-1.289 0.693-2.129v0l-0.154-1.814c-0.083-0.981-0.314-1.638-0.694-1.972-0.374-0.341-0.858-0.547-1.453-0.618v0l-6.726-0.792c-0.553-0.061-1.015-0.239-1.385-0.532-0.37-0.294-0.591-0.867-0.663-1.721v0l-0.217-2.57c-0.071-0.84 0.163-1.55 0.703-2.13 0.54-0.58 1.29-0.911 2.25-0.992z" fill="#7a26c1" data-fill-palette-color="primary"></path><path d="M153.28 21.231l-0.31-0.042 2.278-16.819 0.31 0.042-1.118 8.259 11.957 1.62 1.119-8.259 0.311 0.042-2.278 16.818-0.311-0.042 1.117-8.249-11.957-1.619zM150.344 23.691l4.832 0.654c0.394 0.053 0.69 0.005 0.887-0.145 0.198-0.157 0.324-0.432 0.377-0.827v0l0.937-6.915 5.212 0.705-0.937 6.916c-0.053 0.394-0.005 0.693 0.144 0.898 0.15 0.197 0.422 0.323 0.817 0.376v0l4.831 0.654c0.394 0.053 0.693 0.005 0.897-0.144 0.198-0.157 0.324-0.432 0.377-0.826v0l2.735-20.187c0.053-0.394 0.005-0.69-0.146-0.887-0.156-0.205-0.431-0.334-0.825-0.388v0l-4.831-0.654c-0.394-0.053-0.69-0.002-0.889 0.155-0.197 0.15-0.323 0.422-0.376 0.817v0l-0.915 6.755-5.212-0.705 0.915-6.756c0.053-0.394 0.005-0.69-0.145-0.887-0.149-0.204-0.421-0.333-0.815-0.386v0l-4.831-0.655c-0.394-0.053-0.694-0.002-0.899 0.154-0.197 0.15-0.323 0.422-0.376 0.817v0l-2.734 20.186c-0.053 0.394-0.005 0.693 0.144 0.898 0.157 0.198 0.432 0.324 0.826 0.377zM156.164 24.51v0l-4.506 2.819c-0.091 0.069-0.231 0.125-0.42 0.168-0.182 0.037-0.376 0.041-0.584 0.013v0l-4.831-0.655c-0.501-0.068-0.85-0.231-1.047-0.489-0.196-0.265-0.26-0.644-0.192-1.138v0l2.734-20.187c0.037-0.274 0.105-0.5 0.204-0.676 0.099-0.177 0.227-0.316 0.383-0.418v0l4.479-2.854c0.118-0.066 0.267-0.114 0.449-0.143 0.188-0.029 0.385-0.029 0.592-0.001v0l4.831 0.654c0.494 0.067 0.84 0.229 1.036 0.487 0.203 0.259 0.271 0.639 0.203 1.14v0l-0.873 6.445 0.551 0.075 0.413-3.047c0.037-0.274 0.105-0.5 0.204-0.677 0.099-0.177 0.23-0.316 0.393-0.416v0l4.48-2.853c0.118-0.066 0.267-0.114 0.448-0.144 0.181-0.03 0.375-0.031 0.582-0.003v0l4.831 0.655c0.501 0.068 0.85 0.231 1.047 0.488 0.196 0.258 0.261 0.638 0.192 1.139v0l-2.734 20.187c-0.037 0.274-0.105 0.496-0.202 0.666-0.099 0.177-0.227 0.32-0.385 0.428v0l-4.505 2.819c-0.098 0.068-0.238 0.124-0.421 0.168-0.189 0.036-0.386 0.04-0.594 0.011v0l-4.831-0.654c-0.494-0.067-0.84-0.229-1.036-0.488-0.202-0.266-0.27-0.646-0.203-1.14v0l0.895-6.605-0.552-0.074-0.434 3.207c-0.037 0.274-0.105 0.496-0.203 0.667-0.099 0.177-0.23 0.319-0.394 0.426z" fill="#7a26c1" data-fill-palette-color="primary"></path><path d="M186.757 37.147v0l-9.231-3.584c-2.558-0.993-4.19-2.39-4.894-4.19-0.702-1.806-0.643-3.765 0.176-5.877v0l3.207-8.259c0.417-1.075 0.931-1.942 1.542-2.603 0.619-0.664 1.333-1.142 2.142-1.436v0l5.018-1.719c0.807-0.272 1.736-0.353 2.785-0.242 1.041 0.115 2.196 0.418 3.465 0.911v0l7.327 2.844c0.471 0.183 0.773 0.423 0.903 0.72 0.131 0.297 0.105 0.681-0.078 1.152v0l-1.377 3.545c-0.098 0.251-0.215 0.452-0.352 0.601-0.131 0.152-0.289 0.26-0.474 0.326v0l-5.04 1.69c-0.111 0.044-0.26 0.065-0.448 0.064-0.185-0.007-0.379-0.049-0.58-0.127v0l-3.809-1.479-1.636 4.215c0.034-0.03 0.085-0.061 0.155-0.092 0.067-0.024 0.128-0.051 0.183-0.081v0l5.018-1.719c0.132-0.043 0.29-0.057 0.473-0.044 0.187 0.022 0.378 0.071 0.573 0.146v0l4.535 1.761c0.471 0.183 0.773 0.423 0.903 0.719 0.131 0.297 0.105 0.681-0.078 1.153v0l-3.514 9.051c-0.1 0.258-0.214 0.459-0.344 0.605-0.137 0.149-0.299 0.257-0.483 0.322v0l-5.039 1.69c-0.111 0.044-0.26 0.065-0.448 0.064-0.185-0.007-0.379-0.049-0.58-0.127zM182.661 31.542l9.231 3.584c0.371 0.144 0.673 0.167 0.906 0.07 0.229-0.106 0.416-0.345 0.56-0.716v0l3.515-9.052c0.144-0.371 0.167-0.673 0.069-0.906-0.106-0.229-0.345-0.416-0.715-0.56v0l-4.536-1.761c-0.371-0.144-0.673-0.167-0.906-0.069-0.229 0.106-0.416 0.345-0.56 0.715v0l-1.775 4.573-2.848-1.105c-0.446-0.173-0.736-0.423-0.87-0.75-0.136-0.32-0.109-0.726 0.082-1.216v0l2.72-7.006c0.188-0.484 0.477-0.791 0.868-0.922 0.391-0.13 0.888-0.079 1.491 0.156v0l6.091 2.365c0.371 0.144 0.673 0.167 0.906 0.07 0.229-0.106 0.416-0.345 0.56-0.716v0l1.376-3.545c0.144-0.371 0.166-0.67 0.066-0.897-0.104-0.236-0.341-0.425-0.712-0.569v0l-7.326-2.845c-2.439-0.947-4.44-1.159-6.002-0.637-1.56 0.516-2.734 1.788-3.523 3.818v0l-3.551 9.147c-0.788 2.03-0.782 3.765 0.02 5.204 0.803 1.433 2.425 2.623 4.863 3.57zM190.786 31.659l-5.836-2.266c-1.075-0.417-1.929-0.825-2.563-1.223-0.631-0.404-1.084-0.833-1.357-1.286-0.27-0.459-0.385-0.956-0.343-1.49 0.041-0.534 0.194-1.143 0.46-1.829v0l3.185-8.203c0.539-1.389 1.234-2.255 2.083-2.598 0.849-0.343 2.214-0.15 4.093 0.58v0l5.073 1.969-0.114 0.293-5.073-1.97c-1.722-0.669-2.989-0.853-3.8-0.553-0.813 0.306-1.47 1.104-1.97 2.393v0l-3.185 8.203c-0.493 1.27-0.506 2.299-0.038 3.088 0.468 0.789 1.688 1.567 3.662 2.333v0l5.535 2.149 2.171-5.591 0.302 0.117z" fill="#7a26c1" data-fill-palette-color="primary"></path><path d="M205.491 48.228v0l-11.174-7.381c-0.416-0.275-0.66-0.573-0.73-0.895-0.061-0.323 0.046-0.693 0.32-1.109v0l2.063-3.123c0.149-0.225 0.306-0.396 0.472-0.513 0.166-0.117 0.346-0.188 0.54-0.212v0l4.941-0.58 3.863-5.848-2.338-1.545c-0.416-0.275-0.66-0.573-0.73-0.894-0.061-0.323 0.046-0.693 0.32-1.11v0l2.096-3.173c0.152-0.231 0.312-0.404 0.478-0.521 0.166-0.117 0.344-0.185 0.535-0.204v0l5.274-0.626c0.129-0.012 0.284 0.01 0.466 0.065 0.176 0.052 0.351 0.135 0.526 0.251v0l11.174 7.381c0.422 0.279 0.665 0.577 0.73 0.894 0.065 0.318-0.042 0.687-0.32 1.11v0l-2.096 3.173c-0.149 0.225-0.306 0.396-0.472 0.513-0.166 0.117-0.343 0.189-0.532 0.218v0l-4.857 0.562-3.897 5.899 2.279 1.505c0.422 0.279 0.665 0.577 0.731 0.895 0.061 0.323-0.046 0.693-0.321 1.11v0l-2.063 3.122c-0.152 0.231-0.31 0.402-0.472 0.513-0.166 0.117-0.343 0.189-0.532 0.218v0l-5.282 0.584c-0.118 0.019-0.268 0.009-0.452-0.032-0.185-0.05-0.365-0.132-0.54-0.247zM199.764 39.959v0l11.174 7.381c0.332 0.219 0.622 0.306 0.871 0.26 0.247-0.055 0.48-0.249 0.699-0.581v0l2.062-3.122c0.219-0.332 0.304-0.619 0.255-0.863-0.052-0.252-0.243-0.488-0.576-0.707v0l-2.54-1.678 5.82-8.811 2.54 1.678c0.332 0.219 0.622 0.306 0.871 0.26 0.247-0.055 0.48-0.249 0.699-0.581v0l2.096-3.173c0.219-0.332 0.304-0.619 0.254-0.863-0.052-0.252-0.243-0.488-0.575-0.707v0l-11.174-7.381c-0.332-0.219-0.621-0.301-0.868-0.246-0.249 0.046-0.482 0.235-0.702 0.567v0l-2.096 3.174c-0.219 0.332-0.303 0.624-0.251 0.876 0.05 0.243 0.24 0.474 0.572 0.693v0l2.6 1.717-5.82 8.811-2.6-1.717c-0.332-0.219-0.621-0.301-0.868-0.246-0.249 0.046-0.482 0.235-0.701 0.567v0l-2.063 3.123c-0.219 0.332-0.303 0.624-0.252 0.876 0.05 0.243 0.24 0.474 0.573 0.693zM211.254 43.779l-0.173 0.262-8.338-5.508 0.172-0.262 4.068 2.687 9.009-13.638-4.068-2.687 0.173-0.262 8.338 5.508-0.172 0.261-4.009-2.648-9.009 13.639z" fill="#7a26c1" data-fill-palette-color="primary"></path><path d="M219.186 60.486l-6.977-7.069c-0.355-0.36-0.532-0.702-0.53-1.026 0.007-0.329 0.188-0.669 0.543-1.02v0l2.62-2.586c0.192-0.189 0.381-0.324 0.568-0.404 0.186-0.08 0.375-0.114 0.566-0.103v0l4.088 0.384c-0.537-1.024-0.745-2.046-0.623-3.065 0.126-1.024 0.726-2.067 1.801-3.128v0l2.347-2.317c0.672-0.663 1.381-1.14 2.126-1.43 0.741-0.296 1.495-0.41 2.263-0.343v0l5.31 0.499c0.724 0.081 1.476 0.329 2.256 0.745 0.775 0.41 1.536 0.995 2.284 1.753v0l6.189 6.27c0.351 0.355 0.525 0.695 0.522 1.019 0.003 0.329-0.176 0.671-0.536 1.026v0l-2.663 2.629c-0.192 0.189-0.381 0.324-0.568 0.404-0.186 0.08-0.377 0.112-0.573 0.097v0l-3.666-0.361c0.717 1.149 1.075 2.293 1.071 3.433-0.007 1.144-0.616 2.313-1.825 3.507v0l-2.347 2.317c-0.672 0.663-1.381 1.14-2.126 1.43-0.741 0.286-1.505 0.391-2.291 0.314v0l-5.268-0.499c-0.753-0.081-1.517-0.327-2.291-0.737-0.779-0.415-1.536-0.995-2.27-1.739zM217.721 53.675l6.978 7.069c1.412 1.43 2.865 2.226 4.361 2.389 1.496 0.153 2.878-0.396 4.145-1.647v0l2.347-2.316c1.253-1.236 1.833-2.439 1.74-3.608-0.097-1.174-0.585-2.355-1.465-3.542v0l-2.843-3.788c-0.175-0.206-0.248-0.428-0.217-0.667 0.035-0.233 0.148-0.445 0.34-0.634v0c0.192-0.189 0.402-0.298 0.632-0.325 0.229-0.018 0.438 0.07 0.627 0.261v0l5.151 5.22c0.279 0.283 0.546 0.423 0.799 0.42 0.253 0.006 0.521-0.13 0.804-0.41v0l2.663-2.629c0.283-0.279 0.423-0.546 0.42-0.798 0.006-0.253-0.13-0.521-0.409-0.804v0l-6.189-6.27c-1.426-1.445-2.884-2.241-4.376-2.389-1.487-0.153-2.864 0.396-4.13 1.647v0l-2.354 2.323c-1.253 1.236-1.833 2.434-1.74 3.593 0.088 1.164 0.574 2.343 1.457 3.536v0l2.836 3.824c0.175 0.206 0.252 0.419 0.232 0.638-0.025 0.214-0.163 0.445-0.413 0.691v0c-0.182 0.18-0.383 0.284-0.602 0.31-0.229 0.027-0.438-0.055-0.628-0.247v0l-5.94-6.018c-0.279-0.283-0.546-0.428-0.798-0.434-0.248-0.002-0.513 0.137-0.797 0.416v0l-2.62 2.587c-0.283 0.279-0.428 0.546-0.435 0.798 0.003 0.253 0.144 0.521 0.424 0.804zM235.682 43.679l4.902 4.967-0.223 0.22-4.902-4.967c-0.621-0.629-1.284-0.96-1.989-0.993-0.715-0.033-1.334 0.208-1.858 0.725v0l-1.835 1.812c-0.518 0.512-0.781 0.975-0.789 1.389 0.002 0.415 0.14 0.823 0.414 1.226v0l3.703 5.667c0.349 0.536 0.52 1.098 0.512 1.684-0.009 0.586-0.402 1.263-1.18 2.031v0l-1.295 1.279c-0.657 0.649-1.422 0.959-2.295 0.929-0.863-0.029-1.668-0.423-2.417-1.181v0l-5.499-5.572 0.223-0.221 5.499 5.572c0.677 0.686 1.407 1.046 2.189 1.08 0.786 0.039 1.48-0.238 2.079-0.83v0l1.296-1.279c0.701-0.692 1.057-1.29 1.071-1.795 0.022-0.505-0.129-1.009-0.455-1.512v0l-3.697-5.675c-0.307-0.465-0.466-0.933-0.477-1.405-0.011-0.472 0.288-1.009 0.897-1.61v0l1.836-1.812c0.6-0.592 1.295-0.866 2.087-0.823 0.791 0.043 1.526 0.408 2.203 1.094z" fill="#7a26c1" data-fill-palette-color="primary"></path><path d="M233.327 78.666v0l-2.729-4.306c-0.267-0.422-0.367-0.793-0.299-1.115 0.077-0.32 0.326-0.613 0.747-0.881v0l12.774-8.092-2.306-3.64c-0.267-0.422-0.365-0.79-0.294-1.107 0.073-0.326 0.32-0.622 0.741-0.889v0l3.213-2.036c0.234-0.148 0.45-0.241 0.649-0.279 0.199-0.038 0.39-0.027 0.572 0.033v0l5.067 1.591c0.122 0.042 0.255 0.126 0.398 0.251 0.139 0.119 0.265 0.267 0.377 0.443v0l8.883 14.021c0.271 0.427 0.371 0.799 0.3 1.116-0.071 0.316-0.32 0.61-0.748 0.88v0l-3.212 2.036c-0.228 0.144-0.44 0.239-0.635 0.282-0.199 0.038-0.393 0.029-0.581-0.027v0l-5.057-1.633c-0.115-0.031-0.248-0.102-0.399-0.214-0.145-0.116-0.274-0.262-0.386-0.439v0l-0.135-0.213-9.877 6.257c-0.234 0.148-0.447 0.239-0.641 0.274-0.199 0.038-0.393 0.029-0.58-0.027v0l-5.058-1.633c-0.112-0.025-0.245-0.096-0.399-0.214-0.145-0.116-0.274-0.262-0.385-0.439zM235.93 75.784l2.729 4.306c0.213 0.336 0.44 0.531 0.682 0.585 0.251 0.056 0.545-0.022 0.881-0.235v0l13.038-8.26 2.469 3.896c0.217 0.342 0.446 0.54 0.687 0.594 0.248 0.051 0.539-0.03 0.876-0.243v0l3.213-2.036c0.336-0.213 0.531-0.44 0.585-0.682 0.06-0.246-0.018-0.539-0.235-0.881v0l-8.883-14.021c-0.213-0.336-0.443-0.529-0.691-0.58-0.246-0.06-0.536 0.017-0.872 0.229v0l-3.213 2.036c-0.336 0.213-0.532 0.445-0.588 0.696-0.054 0.242 0.025 0.531 0.238 0.867v0l2.473 3.905-13.038 8.26c-0.336 0.213-0.532 0.445-0.589 0.697-0.054 0.242 0.025 0.531 0.238 0.867zM239.768 76.549l-0.168-0.265 14.073-8.915-3.449-5.443 0.265-0.168 7.07 11.159-0.265 0.168-3.454-5.451z" fill="#7a26c1" data-fill-palette-color="primary"></path><path d="M243.554 99.552l-3.47-9.307c-0.177-0.474-0.198-0.858-0.063-1.153 0.141-0.297 0.445-0.533 0.913-0.708v0l3.45-1.286c0.253-0.094 0.48-0.14 0.683-0.136 0.203 0.004 0.389 0.049 0.558 0.137v0l3.573 2.025c-0.07-1.154 0.158-2.171 0.686-3.052 0.534-0.883 1.509-1.588 2.925-2.116v0l3.089-1.152c0.885-0.33 1.726-0.475 2.526-0.434 0.797 0.034 1.532 0.238 2.205 0.614v0l4.64 2.63c0.628 0.371 1.212 0.905 1.753 1.603 0.539 0.692 0.994 1.536 1.366 2.535v0l3.078 8.254c0.174 0.468 0.194 0.849 0.059 1.144-0.132 0.301-0.435 0.54-0.909 0.717v0l-3.507 1.308c-0.253 0.094-0.48 0.14-0.683 0.136-0.203-0.004-0.39-0.052-0.562-0.147v0l-3.198-1.83c0.184 1.342 0.041 2.532-0.428 3.57-0.475 1.041-1.509 1.858-3.101 2.452v0l-3.09 1.152c-0.885 0.33-1.726 0.475-2.526 0.435-0.793-0.043-1.533-0.26-2.218-0.652v0l-4.602-2.613c-0.654-0.382-1.25-0.919-1.788-1.611-0.541-0.698-0.994-1.536-1.359-2.515zM245.008 92.738l3.47 9.306c0.702 1.883 1.702 3.205 3.001 3.966 1.302 0.752 2.788 0.817 4.455 0.195v0l3.09-1.152c1.649-0.615 2.671-1.474 3.065-2.578 0.392-1.11 0.43-2.388 0.115-3.832v0l-1.043-4.62c-0.075-0.26-0.05-0.492 0.075-0.698 0.127-0.199 0.318-0.345 0.57-0.439v0c0.253-0.094 0.489-0.107 0.709-0.038 0.216 0.078 0.371 0.243 0.466 0.496v0l2.562 6.871c0.139 0.373 0.324 0.609 0.556 0.71 0.228 0.109 0.528 0.095 0.901-0.044v0l3.506-1.308c0.373-0.139 0.609-0.324 0.711-0.556 0.109-0.228 0.095-0.528-0.045-0.901v0l-3.078-8.255c-0.709-1.902-1.714-3.226-3.014-3.971-1.294-0.748-2.775-0.811-4.442-0.189v0l-3.099 1.155c-1.649 0.615-2.669 1.47-3.059 2.566-0.397 1.098-0.436 2.372-0.119 3.822v0l1.022 4.65c0.075 0.26 0.059 0.485-0.05 0.677-0.111 0.185-0.331 0.339-0.659 0.461v0c-0.24 0.09-0.466 0.102-0.678 0.037-0.22-0.069-0.377-0.23-0.471-0.483v0l-2.954-7.923c-0.139-0.373-0.322-0.614-0.551-0.723-0.226-0.103-0.525-0.085-0.897 0.054v0l-3.45 1.287c-0.373 0.139-0.614 0.322-0.723 0.55-0.101 0.232-0.081 0.534 0.058 0.907zM265.486 90.974l2.439 6.539-0.294 0.11-2.438-6.539c-0.309-0.828-0.778-1.401-1.408-1.721-0.639-0.323-1.302-0.356-1.991-0.099v0l-2.417 0.901c-0.682 0.254-1.112 0.569-1.289 0.944-0.168 0.379-0.209 0.809-0.124 1.288v0l1.058 6.687c0.099 0.632 0.025 1.214-0.224 1.746-0.248 0.531-0.884 0.988-1.907 1.37v0l-1.706 0.636c-0.866 0.323-1.69 0.292-2.474-0.092-0.775-0.38-1.349-1.07-1.721-2.068v0l-2.735-7.336 0.294-0.109 2.735 7.335c0.337 0.903 0.855 1.531 1.554 1.882 0.702 0.357 1.447 0.389 2.238 0.094v0l1.705-0.636c0.922-0.344 1.493-0.744 1.712-1.2 0.227-0.452 0.295-0.974 0.204-1.565v0l-1.048-6.691c-0.09-0.549-0.043-1.042 0.14-1.477 0.183-0.435 0.676-0.803 1.478-1.102v0l2.417-0.901c0.79-0.294 1.537-0.26 2.241 0.103 0.704 0.364 1.225 0.997 1.561 1.901z" fill="#7a26c1" data-fill-palette-color="primary"></path><path d="M6.471 185.542l-2.785-8.08c-0.141-0.408-0.15-0.736-0.029-0.985 0.125-0.257 0.392-0.456 0.8-0.597v0l2.993-1.031c0.217-0.075 0.413-0.107 0.587-0.096 0.173 0.005 0.334 0.049 0.485 0.133v0l3.022 1.815c-0.038-1 0.183-1.871 0.661-2.614 0.476-0.749 1.327-1.335 2.551-1.756v0l2.687-0.926c0.765-0.264 1.491-0.371 2.178-0.323 0.681 0.051 1.308 0.245 1.88 0.582v0l3.94 2.366c0.528 0.332 1.018 0.801 1.469 1.408 0.445 0.61 0.818 1.348 1.117 2.215v0l2.465 7.153c0.143 0.414 0.154 0.746 0.032 0.995-0.121 0.249-0.389 0.444-0.803 0.587v0l-3.041 1.048c-0.217 0.075-0.415 0.111-0.594 0.108-0.173-0.005-0.331-0.05-0.475-0.136v0l-2.706-1.645c0.129 1.161-0.018 2.182-0.443 3.062-0.43 0.883-1.337 1.563-2.72 2.04v0l-2.687 0.926c-0.765 0.264-1.488 0.37-2.169 0.319-0.689-0.055-1.323-0.257-1.9-0.607v0l-3.901-2.347c-0.554-0.344-1.056-0.82-1.508-1.427-0.445-0.61-0.814-1.338-1.106-2.187zM7.864 179.713l2.785 8.08c0.562 1.632 1.396 2.789 2.501 3.471 1.097 0.678 2.368 0.767 3.816 0.269v0l2.687-0.927c1.434-0.494 2.331-1.214 2.69-2.157 0.359-0.944 0.42-2.042 0.181-3.293v0l-0.805-3.981c-0.058-0.23-0.031-0.432 0.081-0.605 0.113-0.167 0.282-0.29 0.504-0.367v0c0.223-0.077 0.425-0.082 0.605-0.016 0.188 0.071 0.321 0.217 0.398 0.441v0l2.05 5.948c0.112 0.325 0.267 0.536 0.463 0.632 0.191 0.098 0.449 0.091 0.774-0.021v0l3.041-1.048c0.325-0.112 0.536-0.267 0.632-0.464 0.096-0.197 0.088-0.458-0.024-0.783v0l-2.465-7.153c-0.569-1.651-1.404-2.811-2.505-3.48-1.101-0.669-2.375-0.754-3.822-0.256v0l-2.687 0.926c-1.428 0.492-2.324 1.204-2.687 2.135-0.368 0.94-0.429 2.034-0.184 3.284v0l0.786 4.019c0.058 0.23 0.038 0.422-0.059 0.577-0.101 0.163-0.294 0.294-0.581 0.393v0c-0.204 0.07-0.399 0.073-0.585 0.009-0.184-0.058-0.314-0.198-0.392-0.422v0l-2.369-6.875c-0.112-0.325-0.267-0.536-0.464-0.632-0.189-0.092-0.445-0.082-0.77 0.03v0l-2.994 1.032c-0.325 0.112-0.534 0.262-0.625 0.451-0.096 0.197-0.088 0.458 0.024 0.783zM25.51 178.638l1.954 5.671-0.258 0.089-1.955-5.671c-0.248-0.72-0.639-1.224-1.173-1.51-0.542-0.291-1.11-0.334-1.703-0.13v0l-2.094 0.722c-0.599 0.207-0.976 0.468-1.131 0.785-0.159 0.326-0.206 0.695-0.142 1.108v0l0.768 5.769c0.074 0.545-0.004 1.043-0.234 1.493-0.221 0.454-0.775 0.834-1.661 1.14v0l-1.482 0.511c-0.752 0.259-1.46 0.214-2.123-0.136-0.66-0.343-1.14-0.948-1.438-1.815v0l-2.195-6.368 0.249-0.086 2.194 6.369c0.27 0.784 0.702 1.334 1.297 1.65 0.602 0.32 1.245 0.363 1.927 0.128v0l1.482-0.511c0.797-0.275 1.297-0.604 1.5-0.988 0.203-0.384 0.273-0.832 0.21-1.346v0l-0.759-5.772c-0.071-0.475-0.021-0.899 0.15-1.271 0.165-0.371 0.598-0.677 1.299-0.919v0l2.094-0.721c0.682-0.235 1.322-0.188 1.921 0.14 0.598 0.329 1.033 0.885 1.303 1.669z" fill="#7a26c1" data-fill-palette-color="primary"></path><path d="M23.304 208.104l-0.139-0.224 12.415-7.675 0.138 0.224-6.091 3.766 5.462 8.835 6.092-3.765 0.138 0.223-12.415 7.675-0.138-0.223 6.091-3.766-5.462-8.836zM20.066 207.502l2.202 3.561c0.181 0.293 0.378 0.464 0.591 0.515 0.208 0.054 0.458-0.01 0.75-0.191v0l5.111-3.159 2.372 3.837-5.111 3.159c-0.293 0.181-0.461 0.376-0.505 0.587-0.054 0.208 0.01 0.458 0.19 0.75v0l2.207 3.57c0.177 0.287 0.373 0.455 0.587 0.506 0.208 0.054 0.458-0.01 0.75-0.19v0l14.901-9.212c0.293-0.181 0.464-0.378 0.514-0.592 0.05-0.213-0.013-0.464-0.19-0.75v0l-2.207-3.571c-0.181-0.293-0.376-0.461-0.587-0.505-0.213-0.05-0.466 0.015-0.759 0.195v0l-4.989 3.085-2.373-3.837 4.99-3.085c0.293-0.181 0.464-0.378 0.515-0.591 0.05-0.213-0.015-0.466-0.196-0.759v0l-2.202-3.562c-0.181-0.293-0.376-0.461-0.586-0.506-0.213-0.05-0.466 0.015-0.759 0.196v0l-14.901 9.212c-0.293 0.181-0.461 0.376-0.506 0.586-0.054 0.208 0.01 0.458 0.191 0.751zM22.699 211.819v0l-4.329-1.462c-0.099-0.018-0.212-0.079-0.339-0.183-0.127-0.104-0.237-0.23-0.329-0.379v0l-2.207-3.57c-0.227-0.367-0.309-0.685-0.245-0.955 0.066-0.278 0.282-0.531 0.649-0.758v0l14.901-9.212c0.201-0.124 0.388-0.2 0.56-0.227 0.17-0.033 0.334-0.024 0.494 0.028v0l4.338 1.42c0.109 0.036 0.225 0.107 0.346 0.214 0.112 0.105 0.216 0.235 0.313 0.39v0l2.202 3.562c0.23 0.373 0.314 0.694 0.25 0.963-0.064 0.269-0.282 0.519-0.654 0.749v0l-4.758 2.941 0.255 0.413 2.254-1.393c0.201-0.124 0.388-0.2 0.561-0.228 0.17-0.033 0.334-0.024 0.493 0.028v0l4.339 1.421c0.109 0.036 0.225 0.107 0.346 0.213 0.116 0.111 0.22 0.241 0.312 0.39v0l2.207 3.571c0.227 0.367 0.309 0.685 0.246 0.954-0.06 0.275-0.276 0.528-0.65 0.758v0l-14.9 9.212c-0.201 0.124-0.388 0.2-0.561 0.228-0.17 0.033-0.334 0.024-0.493-0.028v0l-4.324-1.454c-0.102-0.024-0.217-0.088-0.344-0.191-0.127-0.104-0.237-0.23-0.329-0.38v0l-2.208-3.57c-0.227-0.367-0.309-0.685-0.245-0.954 0.066-0.278 0.282-0.531 0.649-0.758v0l4.878-3.016-0.255-0.413-2.374 1.468c-0.201 0.124-0.386 0.203-0.556 0.236-0.17 0.033-0.334 0.024-0.493-0.028z" fill="#7a26c1" data-fill-palette-color="primary"></path><path d="M46.785 229.336v0l-0.59 0.598 7.504 7.401 0.589-0.598c0.341-0.346 0.629-0.696 0.866-1.05 0.231-0.35 0.431-0.697 0.601-1.041v0l1.757-4.447c0.192-0.473 0.323-0.899 0.392-1.275 0.064-0.372-0.084-0.736-0.444-1.092v0l-1.887-1.861c-0.384-0.379-0.764-0.536-1.14-0.471-0.376 0.074-0.785 0.21-1.228 0.409v0l-4.342 1.94c-0.347 0.169-0.694 0.372-1.04 0.608-0.351 0.241-0.697 0.534-1.038 0.879zM50.004 230.423l3.791-2.029c0.162-0.068 0.297-0.1 0.407-0.096 0.11 0.004 0.203 0.044 0.279 0.12v0l0.483 0.476c0.077 0.076 0.118 0.168 0.123 0.278 0.006 0.11-0.022 0.248-0.083 0.415v0l-1.976 3.819zM50.441 241.027l-0.194-0.192 3.26-3.306-7.504-7.4-3.26 3.305-0.194-0.192 4.041-4.097c0.355-0.36 0.711-0.663 1.067-0.909 0.351-0.241 0.719-0.451 1.104-0.63v0l4.35-1.947c0.49-0.218 0.944-0.362 1.363-0.431 0.424-0.065 0.854 0.118 1.291 0.549v0l1.887 1.861c0.422 0.417 0.599 0.833 0.53 1.248-0.069 0.415-0.208 0.884-0.419 1.405v0l-1.765 4.453c-0.179 0.383-0.386 0.751-0.621 1.106-0.241 0.359-0.539 0.719-0.894 1.079v0zM43.694 236.431v0l2.656-2.693 3.406 3.36-2.656 2.693c-0.241 0.245-0.352 0.482-0.331 0.71 0.011 0.229 0.146 0.471 0.405 0.727v0l2.902 2.862c0.245 0.241 0.477 0.361 0.697 0.36 0.21-0.001 0.435-0.125 0.677-0.369v0l5.014-5.084c0.379-0.384 0.754-0.885 1.127-1.503 0.377-0.622 0.765-1.395 1.164-2.318v0l2.633-6.012c0.141-0.297 0.18-0.576 0.116-0.837-0.054-0.262-0.204-0.514-0.448-0.756v0l-5.178-5.106c-0.259-0.256-0.52-0.409-0.783-0.46-0.258-0.055-0.534-0.011-0.829 0.135v0l-5.982 2.709c-0.913 0.416-1.68 0.815-2.302 1.196-0.612 0.381-1.108 0.763-1.487 1.147v0l-5.014 5.084c-0.241 0.245-0.362 0.472-0.36 0.682 0.002 0.219 0.125 0.45 0.369 0.691v0l2.831 2.792c0.245 0.241 0.475 0.359 0.689 0.353 0.215 0.003 0.443-0.117 0.684-0.363zM42.911 237.066l-4.544-0.391c-0.105 0.001-0.229-0.032-0.373-0.097-0.148-0.07-0.287-0.17-0.416-0.298v0l-2.831-2.791c-0.307-0.303-0.462-0.593-0.463-0.869-0.002-0.286 0.149-0.583 0.451-0.89v0l5.015-5.084c0.388-0.394 0.896-0.783 1.522-1.17 0.622-0.391 1.408-0.799 2.359-1.225v0l5.946-2.716c0.152-0.077 0.297-0.128 0.436-0.153 0.143-0.03 0.276-0.045 0.4-0.045v0l0.043-0.001 4.494 0.37c0.196 0.013 0.384 0.066 0.566 0.16 0.182 0.094 0.364 0.231 0.547 0.411v0l5.177 5.107c0.293 0.289 0.474 0.586 0.543 0.891 0.069 0.305 0.021 0.632-0.144 0.98v0l-2.64 6.019c-0.413 0.956-0.808 1.751-1.185 2.383-0.377 0.622-0.762 1.133-1.156 1.532v0l-5.014 5.084c-0.166 0.168-0.327 0.288-0.484 0.361-0.162 0.068-0.324 0.098-0.486 0.089v0l-4.551-0.398c-0.105 0.001-0.229-0.032-0.373-0.098-0.148-0.07-0.287-0.17-0.417-0.297v0l-2.902-2.862c-0.322-0.317-0.486-0.626-0.493-0.927-0.012-0.296 0.129-0.592 0.423-0.89v0l2.465-2.498-0.54-0.533-0.398 0.403c-0.166 0.168-0.327 0.288-0.484 0.361-0.162 0.068-0.326 0.095-0.493 0.082z" fill="#7a26c1" data-fill-palette-color="primary"></path><path d="M77.253 249.926v0c0.278 0.165 0.516 0.221 0.713 0.165 0.2-0.046 0.549-0.191 1.048-0.435v0l5.409-2.644c0.182-0.096 0.349-0.138 0.499-0.127 0.147 0.017 0.284 0.063 0.412 0.139v0l0.391 0.233c0.22 0.131 0.345 0.284 0.375 0.458 0.03 0.175-0.03 0.386-0.178 0.636v0l-7.033 11.822-0.226-0.134 7.033-11.823c0.076-0.127 0.114-0.258 0.114-0.39 0.006-0.13-0.069-0.241-0.225-0.334v0l-0.347-0.207c-0.11-0.066-0.211-0.106-0.304-0.122-0.093-0.016-0.232 0.027-0.418 0.128v0l-5.387 2.586c-0.526 0.252-0.909 0.413-1.146 0.483-0.238 0.07-0.528 0.004-0.87-0.199v0c-0.342-0.203-0.539-0.426-0.591-0.669-0.058-0.246-0.101-0.661-0.131-1.244v0l-0.29-5.962c0-0.212-0.034-0.358-0.104-0.439-0.07-0.081-0.157-0.152-0.261-0.214v0l-0.348-0.207c-0.156-0.093-0.287-0.104-0.392-0.033-0.105 0.071-0.195 0.17-0.271 0.298v0l-7.032 11.822-0.235-0.139 7.032-11.823c0.148-0.249 0.309-0.401 0.483-0.454 0.167-0.057 0.353-0.026 0.555 0.095v0l0.391 0.232c0.127 0.076 0.237 0.176 0.328 0.301 0.087 0.13 0.132 0.298 0.135 0.504v0l0.259 6.015c0.029 0.558 0.068 0.935 0.117 1.129 0.052 0.203 0.217 0.388 0.495 0.553zM64.586 254.502l3.46 2.058c0.296 0.176 0.55 0.237 0.762 0.182 0.209-0.048 0.402-0.22 0.578-0.515v0l4.866-8.18-0.14 3.341c-0.019 0.349 0.035 0.641 0.162 0.874 0.122 0.23 0.331 0.432 0.627 0.608v0l0.93 0.553c0.296 0.176 0.573 0.263 0.834 0.261 0.266 0.001 0.548-0.09 0.846-0.274v0l2.869-1.718-4.866 8.18c-0.176 0.296-0.235 0.547-0.177 0.754 0.054 0.213 0.226 0.405 0.515 0.577v0l3.582 2.13c0.296 0.176 0.55 0.237 0.762 0.183 0.203-0.052 0.393-0.225 0.569-0.521v0l8.956-15.056c0.176-0.296 0.24-0.548 0.191-0.757-0.054-0.213-0.229-0.407-0.524-0.583v0l-3.764-2.239c-0.249-0.148-0.488-0.216-0.716-0.201-0.228 0.014-0.485 0.104-0.772 0.27v0l-4.319 2.55c-0.158 0.094-0.282 0.158-0.372 0.191-0.096 0.029-0.19 0.016-0.283-0.039v0l-0.208-0.124c-0.093-0.055-0.146-0.13-0.161-0.225-0.02-0.098-0.026-0.239-0.019-0.423v0l0.155-5.028c0.009-0.332-0.035-0.601-0.132-0.808-0.097-0.207-0.27-0.384-0.519-0.532v0l-3.738-2.223c-0.296-0.176-0.547-0.235-0.753-0.178-0.213 0.054-0.407 0.229-0.583 0.524v0l-8.956 15.057c-0.176 0.296-0.235 0.547-0.177 0.753 0.048 0.209 0.22 0.402 0.515 0.578zM68.778 257.03v0l-4.514 0.704c-0.096 0.029-0.224 0.027-0.385-0.005-0.161-0.033-0.317-0.094-0.468-0.184v0l-3.468-2.063c-0.371-0.221-0.59-0.465-0.659-0.733-0.07-0.277 0.005-0.601 0.226-0.972v0l8.956-15.056c0.121-0.203 0.251-0.357 0.392-0.462 0.135-0.108 0.285-0.176 0.45-0.203v0l4.504-0.745c0.113-0.019 0.249-0.009 0.406 0.029 0.148 0.041 0.301 0.108 0.457 0.202v0l3.738 2.223c0.296 0.176 0.506 0.383 0.63 0.622 0.119 0.235 0.174 0.551 0.167 0.947v0l-0.145 3.844 0.425-0.241c0.129-0.072 0.258-0.137 0.387-0.194 0.132-0.063 0.254-0.104 0.367-0.123v0l4.488-0.719c0.183-0.017 0.352-0.011 0.507 0.019 0.161 0.033 0.334 0.105 0.519 0.214v0l3.764 2.239c0.371 0.221 0.593 0.467 0.667 0.739 0.068 0.268-0.01 0.59-0.234 0.967v0l-8.955 15.056c-0.121 0.203-0.248 0.358-0.384 0.466-0.141 0.105-0.291 0.172-0.45 0.203v0l-4.514 0.704c-0.102 0.026-0.23 0.024-0.386-0.005-0.161-0.033-0.32-0.096-0.476-0.189v0l-3.572-2.125c-0.388-0.231-0.614-0.479-0.676-0.744-0.059-0.27 0.022-0.591 0.242-0.962v0l3.651-6.137-2.051 0.322c-0.187 0.038-0.377 0.034-0.571-0.01-0.203-0.042-0.411-0.127-0.625-0.254v0l-0.304-0.181-1.272 2.138c-0.121 0.203-0.248 0.358-0.384 0.466-0.135 0.108-0.285 0.176-0.45 0.203z" fill="#7a26c1" data-fill-palette-color="primary"></path><path d="M102.655 275.322v0l-11-3.423c-0.412-0.128-0.682-0.315-0.811-0.559-0.127-0.251-0.126-0.583 0.002-0.995v0l0.956-3.071c0.07-0.225 0.158-0.406 0.264-0.543 0.106-0.137 0.236-0.237 0.391-0.302v0l3.939-1.666 1.792-5.756-2.299-0.715c-0.412-0.128-0.682-0.315-0.811-0.56-0.129-0.245-0.128-0.576 0.002-0.995v0l0.971-3.119c0.07-0.225 0.158-0.406 0.264-0.543 0.106-0.137 0.236-0.237 0.391-0.302v0l4.206-1.774c0.106-0.045 0.24-0.067 0.402-0.066 0.16 0.007 0.324 0.037 0.491 0.09v0l11.001 3.423c0.412 0.128 0.686 0.316 0.82 0.562 0.129 0.245 0.128 0.576-0.002 0.995v0l-0.971 3.12c-0.07 0.225-0.158 0.406-0.264 0.542-0.112 0.134-0.243 0.235-0.391 0.303v0l-3.883 1.62-1.809 5.814 2.25 0.7c0.412 0.128 0.686 0.316 0.821 0.562 0.127 0.251 0.126 0.583-0.002 0.995v0l-0.956 3.072c-0.07 0.225-0.158 0.406-0.264 0.542-0.112 0.134-0.243 0.235-0.391 0.302v0l-4.226 1.736c-0.093 0.049-0.218 0.077-0.376 0.084-0.164 0.005-0.333-0.019-0.507-0.073zM95.942 269.865v0l11.001 3.423c0.328 0.102 0.59 0.102 0.783 0 0.186-0.098 0.33-0.311 0.432-0.639v0l0.956-3.071c0.102-0.328 0.105-0.589 0.01-0.781-0.102-0.194-0.317-0.342-0.646-0.444v0l-2.501-0.779 2.699-8.672 2.501 0.778c0.328 0.102 0.589 0.105 0.781 0.01 0.188-0.104 0.333-0.32 0.435-0.649v0l0.97-3.119c0.102-0.328 0.105-0.589 0.01-0.781-0.102-0.194-0.317-0.342-0.645-0.444v0l-11.001-3.423c-0.322-0.1-0.58-0.099-0.774 0.002-0.194 0.102-0.342 0.317-0.444 0.646v0l-0.971 3.119c-0.102 0.328-0.102 0.59 0 0.784 0.104 0.188 0.317 0.332 0.639 0.432v0l2.559 0.796-2.699 8.673-2.559-0.796c-0.322-0.1-0.58-0.099-0.774 0.003-0.194 0.102-0.342 0.317-0.445 0.645v0l-0.955 3.071c-0.102 0.328-0.101 0.586 0.002 0.774 0.102 0.194 0.314 0.341 0.636 0.442zM106.354 270.277l-0.078 0.251-8.209-2.555 0.078-0.251 3.998 1.244 4.178-13.424-3.999-1.244 0.081-0.261 8.21 2.554-0.082 0.261-3.95-1.229-4.177 13.424z" fill="#7a26c1" data-fill-palette-color="primary"></path><path d="M128.514 279.758l-8.513-0.761c-0.43-0.038-0.733-0.164-0.91-0.376-0.183-0.22-0.256-0.544-0.218-0.974v0l0.282-3.153c0.02-0.228 0.071-0.42 0.153-0.576 0.075-0.156 0.181-0.285 0.319-0.388v0l2.892-2.016c-0.928-0.374-1.633-0.931-2.115-1.671-0.489-0.741-0.676-1.756-0.56-3.046v0l0.253-2.831c0.072-0.806 0.271-1.513 0.596-2.12 0.325-0.601 0.758-1.093 1.3-1.478v0l3.769-2.628c0.518-0.346 1.147-0.601 1.886-0.766 0.738-0.157 1.564-0.195 2.478-0.113v0l7.536 0.674c0.437 0.039 0.744 0.165 0.921 0.377 0.177 0.212 0.246 0.537 0.207 0.973v0l-0.287 3.204c-0.02 0.228-0.068 0.424-0.143 0.586-0.075 0.156-0.181 0.282-0.319 0.378v0l-2.608 1.797c1.112 0.357 1.984 0.909 2.614 1.656 0.63 0.754 0.88 1.859 0.75 3.317v0l-0.254 2.831c-0.072 0.806-0.27 1.509-0.595 2.109-0.332 0.607-0.776 1.102-1.331 1.486v0l-3.736 2.6c-0.54 0.365-1.18 0.629-1.919 0.793-0.738 0.157-1.554 0.196-2.448 0.116zM123.764 276.104l8.513 0.762c1.719 0.154 3.116-0.134 4.19-0.864 1.067-0.724 1.668-1.848 1.804-3.373v0l0.254-2.831c0.135-1.511-0.155-2.624-0.87-3.337-0.715-0.714-1.692-1.218-2.931-1.512v0l-3.962-0.892c-0.233-0.041-0.406-0.148-0.52-0.321-0.106-0.172-0.149-0.376-0.128-0.611v0c0.021-0.235 0.099-0.421 0.233-0.558 0.141-0.143 0.33-0.204 0.565-0.183v0l6.266 0.561c0.343 0.031 0.598-0.024 0.766-0.165 0.168-0.134 0.267-0.372 0.298-0.715v0l0.286-3.203c0.031-0.343-0.024-0.598-0.165-0.767-0.141-0.168-0.382-0.268-0.725-0.298v0l-7.535-0.674c-1.74-0.156-3.14 0.132-4.2 0.863-1.061 0.731-1.659 1.859-1.796 3.383v0l-0.253 2.831c-0.135 1.504 0.149 2.613 0.85 3.326 0.707 0.72 1.681 1.223 2.921 1.51v0l3.99 0.926c0.233 0.041 0.401 0.137 0.502 0.289 0.108 0.159 0.148 0.389 0.121 0.691v0c-0.019 0.215-0.096 0.394-0.231 0.538-0.128 0.144-0.31 0.206-0.545 0.185v0l-7.243-0.648c-0.343-0.031-0.598 0.024-0.766 0.165-0.161 0.135-0.257 0.373-0.288 0.715v0l-0.282 3.153c-0.031 0.343 0.021 0.594 0.156 0.756 0.141 0.168 0.382 0.268 0.725 0.298zM129.996 259.561l5.974 0.534-0.024 0.272-5.974-0.534c-0.759-0.068-1.378 0.083-1.858 0.453-0.487 0.376-0.759 0.877-0.815 1.501v0l-0.197 2.206c-0.056 0.631 0.028 1.082 0.254 1.353 0.232 0.278 0.55 0.472 0.953 0.583v0l5.58 1.657c0.528 0.156 0.95 0.43 1.266 0.824 0.324 0.388 0.444 1.048 0.361 1.982v0l-0.139 1.562c-0.071 0.793-0.401 1.42-0.991 1.881-0.583 0.462-1.331 0.653-2.245 0.571v0l-6.709-0.6 0.023-0.262 6.71 0.6c0.826 0.074 1.505-0.096 2.035-0.508 0.538-0.419 0.84-0.988 0.905-1.706v0l0.139-1.562c0.075-0.84-0.021-1.43-0.288-1.772-0.267-0.342-0.648-0.589-1.142-0.742v0l-5.578-1.667c-0.462-0.129-0.829-0.348-1.099-0.657-0.271-0.302-0.373-0.822-0.307-1.561v0l0.197-2.206c0.064-0.719 0.369-1.284 0.913-1.696 0.545-0.412 1.23-0.581 2.056-0.506z" fill="#7a26c1" data-fill-palette-color="primary"></path><path d="M155.985 273.62l-0.26 0.035-1.929-14.468 0.261-0.034 0.946 7.098 10.297-1.373-0.947-7.098 0.261-0.035 1.929 14.468-0.261 0.034-0.946-7.098-10.297 1.373zM154.112 276.329l4.151-0.553c0.341-0.045 0.578-0.155 0.711-0.33 0.134-0.168 0.178-0.422 0.133-0.763v0l-0.794-5.955 4.471-0.596 0.794 5.955c0.045 0.341 0.155 0.575 0.329 0.702 0.168 0.134 0.422 0.178 0.762 0.133v0l4.161-0.555c0.334-0.045 0.568-0.154 0.701-0.328 0.134-0.168 0.178-0.422 0.133-0.763v0l-2.315-17.365c-0.045-0.341-0.155-0.578-0.329-0.711-0.174-0.133-0.428-0.178-0.763-0.133v0l-4.161 0.555c-0.341 0.045-0.575 0.155-0.701 0.328-0.133 0.174-0.177 0.432-0.132 0.772v0l0.776 5.816-4.472 0.596-0.775-5.815c-0.045-0.341-0.155-0.578-0.33-0.712-0.174-0.133-0.432-0.177-0.772-0.131v0l-4.151 0.553c-0.341 0.045-0.575 0.155-0.701 0.328-0.133 0.174-0.177 0.432-0.132 0.773v0l2.315 17.365c0.045 0.341 0.155 0.575 0.328 0.701 0.168 0.134 0.422 0.178 0.763 0.133zM159.129 275.691v0l-3.104 3.352c-0.057 0.082-0.159 0.161-0.306 0.235-0.147 0.074-0.307 0.123-0.48 0.146v0l-4.161 0.554c-0.428 0.057-0.751 0.002-0.971-0.166-0.227-0.174-0.369-0.475-0.427-0.902v0l-2.315-17.365c-0.031-0.234-0.024-0.436 0.022-0.605 0.039-0.168 0.115-0.315 0.227-0.439v0l3.07-3.378c0.077-0.085 0.189-0.161 0.337-0.229 0.142-0.06 0.303-0.102 0.483-0.126v0l4.151-0.553c0.434-0.058 0.762-0.003 0.981 0.165 0.22 0.168 0.358 0.469 0.417 0.904v0l0.739 5.544 0.481-0.064-0.35-2.627c-0.031-0.234-0.024-0.436 0.021-0.605 0.039-0.168 0.115-0.315 0.227-0.438v0l3.07-3.379c0.077-0.085 0.189-0.161 0.337-0.228 0.148-0.061 0.309-0.102 0.484-0.126v0l4.16-0.555c0.428-0.057 0.751-0.002 0.972 0.167 0.226 0.167 0.368 0.468 0.426 0.902v0l2.315 17.365c0.031 0.234 0.024 0.436-0.022 0.605-0.039 0.168-0.115 0.315-0.227 0.438v0l-3.094 3.352c-0.064 0.083-0.169 0.162-0.315 0.236-0.147 0.074-0.307 0.123-0.481 0.145v0l-4.161 0.555c-0.428 0.057-0.751 0.002-0.971-0.167-0.227-0.174-0.369-0.475-0.426-0.902v0l-0.758-5.685-0.481 0.065 0.369 2.767c0.031 0.234 0.027 0.435-0.012 0.603-0.039 0.168-0.115 0.315-0.227 0.439z" fill="#7a26c1" data-fill-palette-color="primary"></path><path d="M197.14 268.416v0l-7.944 3.07c-2.201 0.851-4.049 0.906-5.542 0.167-1.49-0.733-2.587-2.008-3.289-3.826v0l-2.748-7.113c-0.357-0.925-0.531-1.776-0.52-2.554 0.004-0.775 0.18-1.49 0.527-2.144v0l2.194-4.003c0.352-0.642 0.894-1.231 1.627-1.767 0.729-0.527 1.64-1.002 2.735-1.426v0l6.302-2.435c0.403-0.156 0.733-0.179 0.993-0.069 0.253 0.112 0.458 0.372 0.616 0.781v0l1.177 3.048c0.085 0.22 0.128 0.417 0.131 0.589 0.002 0.173-0.038 0.333-0.119 0.48v0l-2.23 3.995c-0.039 0.087-0.121 0.184-0.245 0.29-0.125 0.106-0.273 0.192-0.443 0.258v0l-3.274 1.265 1.403 3.632c0.007-0.039 0.02-0.087 0.042-0.146 0.029-0.055 0.053-0.107 0.069-0.157v0l2.194-4.003c0.061-0.103 0.154-0.2 0.278-0.292 0.128-0.1 0.276-0.183 0.446-0.248v0l3.906-1.509c0.403-0.156 0.733-0.179 0.993-0.069 0.255 0.118 0.461 0.379 0.616 0.781v0l3.011 7.793c0.085 0.22 0.128 0.417 0.13 0.59-0.005 0.175-0.044 0.335-0.118 0.479v0l-2.234 3.986c-0.042 0.096-0.123 0.196-0.242 0.3-0.125 0.106-0.273 0.192-0.442 0.257zM191.291 267.228l7.945-3.069c0.321-0.124 0.526-0.286 0.614-0.487 0.085-0.192 0.065-0.448-0.059-0.769v0l-3.011-7.793c-0.124-0.321-0.283-0.527-0.477-0.618-0.198-0.082-0.458-0.062-0.778 0.062v0l-3.906 1.509c-0.321 0.124-0.527 0.283-0.618 0.477-0.089 0.201-0.071 0.461 0.052 0.782v0l1.521 3.935-2.444 0.944c-0.384 0.148-0.712 0.159-0.985 0.033-0.273-0.126-0.491-0.4-0.653-0.821v0l-2.329-6.029c-0.163-0.421-0.159-0.785 0.012-1.089 0.169-0.311 0.514-0.567 1.037-0.769v0l5.246-2.027c0.321-0.124 0.527-0.283 0.618-0.477 0.082-0.198 0.062-0.458-0.062-0.779v0l-1.178-3.047c-0.124-0.321-0.283-0.527-0.477-0.618-0.201-0.089-0.461-0.071-0.782 0.053v0l-6.303 2.435c-2.101 0.812-3.498 1.836-4.191 3.072-0.693 1.237-0.702 2.729-0.026 4.478v0l3.04 7.868c0.676 1.749 1.684 2.844 3.026 3.288 1.345 0.449 3.067 0.268 5.168-0.544zM196.517 262.596l-5.019 1.939c-0.925 0.357-1.704 0.593-2.339 0.708-0.631 0.106-1.166 0.096-1.606-0.03-0.435-0.135-0.795-0.383-1.079-0.743-0.286-0.367-0.542-0.842-0.768-1.427v0l-2.731-7.067c-0.462-1.195-0.522-2.148-0.182-2.857 0.347-0.712 1.325-1.379 2.935-2.002v0l4.369-1.688 0.098 0.255-4.368 1.688c-1.478 0.571-2.39 1.187-2.734 1.848-0.336 0.665-0.29 1.551 0.137 2.657v0l2.731 7.067c0.42 1.088 1.009 1.75 1.764 1.986 0.754 0.229 1.98 0.016 3.678-0.641v0l4.765-1.84-1.863-4.822 0.255-0.098z" fill="#7a26c1" data-fill-palette-color="primary"></path><path d="M222.628 253.998v0l-9.601 6.367c-0.36 0.239-0.675 0.33-0.946 0.275-0.275-0.061-0.531-0.271-0.77-0.63v0l-1.778-2.68c-0.13-0.197-0.215-0.379-0.254-0.548-0.039-0.168-0.035-0.333 0.013-0.494v0l1.196-4.107-3.332-5.023-2.006 1.33c-0.36 0.239-0.675 0.33-0.946 0.276-0.271-0.055-0.528-0.265-0.77-0.631v0l-1.806-2.722c-0.13-0.197-0.215-0.379-0.254-0.548-0.039-0.168-0.035-0.333 0.013-0.494v0l1.281-4.381c0.032-0.11 0.1-0.228 0.203-0.353 0.107-0.119 0.233-0.228 0.379-0.325v0l9.601-6.367c0.36-0.239 0.678-0.332 0.955-0.281 0.271 0.055 0.528 0.265 0.77 0.63v0l1.806 2.723c0.13 0.197 0.215 0.379 0.254 0.547 0.033 0.172 0.029 0.337-0.013 0.494v0l-1.196 4.034 3.365 5.074 1.964-1.302c0.36-0.239 0.678-0.332 0.955-0.281 0.275 0.061 0.531 0.271 0.77 0.63v0l1.777 2.681c0.13 0.197 0.215 0.379 0.254 0.547 0.033 0.172 0.029 0.337-0.012 0.494v0l-1.323 4.373c-0.021 0.103-0.078 0.218-0.172 0.345-0.099 0.131-0.225 0.246-0.377 0.347zM214.157 255.756v0l9.601-6.368c0.287-0.19 0.452-0.393 0.495-0.607 0.042-0.206-0.033-0.452-0.222-0.738v0l-1.778-2.681c-0.19-0.287-0.39-0.454-0.599-0.501-0.215-0.044-0.466 0.03-0.752 0.22v0l-2.184 1.448-5.02-7.57 2.183-1.448c0.287-0.19 0.454-0.39 0.501-0.599 0.038-0.211-0.038-0.46-0.228-0.746v0l-1.806-2.723c-0.19-0.287-0.39-0.454-0.599-0.501-0.215-0.044-0.466 0.03-0.752 0.22v0l-9.601 6.367c-0.281 0.186-0.443 0.387-0.487 0.602-0.044 0.215 0.03 0.466 0.22 0.753v0l1.806 2.722c0.19 0.287 0.393 0.452 0.607 0.496 0.211 0.038 0.457-0.036 0.738-0.223v0l2.234-1.482 5.02 7.57-2.233 1.481c-0.281 0.186-0.443 0.387-0.487 0.602-0.044 0.215 0.03 0.466 0.22 0.753v0l1.777 2.68c0.19 0.287 0.391 0.449 0.602 0.487 0.215 0.044 0.463-0.028 0.744-0.214zM221.052 247.943l0.145 0.219-7.165 4.752-0.145-0.219 3.49-2.315-7.771-11.717-3.49 2.315-0.151-0.228 7.165-4.752 0.151 0.228-3.447 2.286 7.77 11.717z" fill="#7a26c1" data-fill-palette-color="primary"></path><path d="M242.399 236.746l-5.966 6.121c-0.301 0.309-0.59 0.465-0.867 0.469-0.286 0.004-0.584-0.145-0.893-0.447v0l-2.267-2.21c-0.164-0.16-0.281-0.321-0.349-0.482-0.074-0.156-0.107-0.321-0.099-0.492v0l0.262-3.515c-0.876 0.483-1.753 0.678-2.632 0.584-0.883-0.089-1.788-0.585-2.715-1.489v0l-2.035-1.984c-0.579-0.565-1.002-1.165-1.268-1.8-0.261-0.631-0.369-1.278-0.325-1.942v0l0.342-4.582c0.059-0.621 0.258-1.269 0.597-1.946 0.344-0.672 0.836-1.336 1.477-1.993v0l5.281-5.417c0.306-0.314 0.597-0.473 0.874-0.476 0.277-0.004 0.572 0.148 0.885 0.453v0l2.303 2.245c0.164 0.16 0.285 0.321 0.364 0.482 0.074 0.156 0.104 0.318 0.092 0.485v0l-0.253 3.158c0.979-0.637 1.957-0.964 2.935-0.982 0.982-0.013 1.997 0.492 3.045 1.513v0l2.035 1.984c0.579 0.565 1 1.163 1.26 1.794 0.261 0.64 0.365 1.297 0.311 1.97v0l-0.342 4.539c-0.058 0.649-0.257 1.312-0.597 1.989-0.344 0.672-0.829 1.329-1.455 1.971zM236.565 238.123l5.966-6.12c1.205-1.236 1.864-2.501 1.976-3.795 0.112-1.284-0.38-2.46-1.476-3.529v0l-2.035-1.984c-1.086-1.059-2.132-1.537-3.137-1.433-1.005 0.103-2.013 0.543-3.023 1.319v0l-3.194 2.508c-0.179 0.155-0.371 0.222-0.577 0.201-0.201-0.026-0.385-0.121-0.554-0.287v0c-0.169-0.165-0.264-0.342-0.286-0.532-0.022-0.2 0.05-0.385 0.215-0.554v0l4.391-4.505c0.24-0.246 0.359-0.479 0.356-0.698 0.002-0.215-0.12-0.442-0.366-0.682v0l-2.303-2.245c-0.246-0.24-0.479-0.359-0.699-0.356-0.219 0.003-0.449 0.127-0.689 0.373v0l-5.281 5.418c-1.219 1.251-1.88 2.518-1.983 3.802-0.103 1.284 0.394 2.46 1.49 3.529v0l2.036 1.984c1.082 1.054 2.12 1.535 3.115 1.44 1.005-0.094 2.01-0.531 3.016-1.311v0l3.237-2.509c0.179-0.155 0.36-0.224 0.541-0.208 0.191 0.017 0.395 0.131 0.612 0.343v0c0.155 0.151 0.245 0.324 0.271 0.519 0.031 0.19-0.036 0.37-0.2 0.539v0l-5.076 5.207c-0.24 0.246-0.359 0.479-0.356 0.699 0.003 0.21 0.127 0.435 0.373 0.674v0l2.267 2.21c0.246 0.24 0.474 0.359 0.684 0.356 0.219-0.003 0.449-0.127 0.689-0.373zM227.672 222.844l4.187-4.295 0.196 0.19-4.187 4.295c-0.532 0.546-0.806 1.121-0.822 1.728-0.016 0.615 0.201 1.142 0.65 1.579v0l1.586 1.546c0.454 0.442 0.857 0.661 1.21 0.657 0.362-0.005 0.714-0.128 1.054-0.371v0l4.807-3.28c0.454-0.311 0.933-0.465 1.439-0.462 0.505-0.006 1.094 0.317 1.765 0.972v0l1.123 1.094c0.57 0.555 0.848 1.208 0.833 1.956-0.01 0.744-0.334 1.444-0.975 2.102v0l-4.702 4.823-0.188-0.183 4.702-4.824c0.579-0.594 0.876-1.227 0.891-1.9 0.015-0.682-0.236-1.275-0.752-1.778v0l-1.122-1.095c-0.604-0.588-1.122-0.887-1.557-0.895-0.434-0.009-0.866 0.13-1.296 0.417v0l-4.815 3.273c-0.392 0.277-0.793 0.423-1.203 0.437-0.405 0.019-0.873-0.23-1.405-0.747v0l-1.586-1.546c-0.517-0.504-0.763-1.097-0.738-1.779 0.025-0.682 0.326-1.32 0.905-1.914z" fill="#7a26c1" data-fill-palette-color="primary"></path><path d="M260.965 212.675v0l-2.308 3.722c-0.227 0.367-0.478 0.585-0.75 0.653-0.275 0.06-0.596-0.024-0.963-0.251v0l-11.054-6.855-1.951 3.146c-0.231 0.372-0.481 0.59-0.751 0.654-0.269 0.063-0.59-0.021-0.962-0.252v0l-2.777-1.722c-0.201-0.124-0.354-0.255-0.459-0.392-0.106-0.137-0.17-0.288-0.194-0.454v0l-0.663-4.516c-0.017-0.114-0.004-0.249 0.037-0.406 0.047-0.153 0.117-0.304 0.21-0.453v0l7.526-12.138c0.227-0.367 0.476-0.582 0.745-0.645 0.273-0.069 0.595 0.012 0.968 0.244v0l2.777 1.721c0.201 0.124 0.352 0.258 0.454 0.401 0.106 0.137 0.17 0.288 0.194 0.454v0l0.635 4.523c0.018 0.099 0.009 0.228-0.027 0.388-0.032 0.154-0.096 0.309-0.192 0.464v0l-0.112 0.181 8.553 5.303c0.201 0.124 0.352 0.258 0.454 0.401 0.106 0.137 0.17 0.288 0.195 0.454v0l0.626 4.518c0.024 0.102 0.018 0.233-0.018 0.393-0.032 0.154-0.096 0.309-0.193 0.464zM257.763 211.736l2.308-3.722c0.178-0.287 0.241-0.537 0.191-0.75-0.044-0.21-0.213-0.406-0.505-0.587v0l-11.287-6.998 2.095-3.379c0.181-0.292 0.248-0.541 0.2-0.744-0.05-0.214-0.221-0.411-0.513-0.593v0l-2.777-1.721c-0.292-0.181-0.545-0.247-0.758-0.197-0.21 0.044-0.406 0.213-0.587 0.505v0l-7.527 12.138c-0.178 0.287-0.241 0.537-0.191 0.75 0.05 0.214 0.221 0.411 0.513 0.592v0l2.777 1.722c0.292 0.181 0.545 0.247 0.759 0.196 0.208-0.054 0.401-0.224 0.578-0.51v0l2.095-3.378 11.286 6.998c0.292 0.181 0.542 0.245 0.75 0.192 0.214-0.05 0.411-0.221 0.593-0.514zM256.917 208.475l-0.144 0.232-12.172-7.548-2.921 4.711-0.232-0.144 5.98-9.645 0.233 0.144-2.916 4.702z" fill="#7a26c1" data-fill-palette-color="primary"></path><path d="M274.065 185.211l-2.873 8.05c-0.145 0.406-0.343 0.669-0.593 0.787-0.259 0.123-0.591 0.111-0.997-0.034v0l-2.982-1.064c-0.216-0.077-0.389-0.175-0.518-0.293-0.132-0.112-0.23-0.247-0.296-0.406v0l-1.225-3.305c-0.595 0.804-1.311 1.347-2.149 1.628-0.84 0.287-1.87 0.213-3.089-0.222v0l-2.677-0.956c-0.762-0.272-1.396-0.642-1.903-1.109-0.5-0.465-0.868-1.008-1.104-1.629v0l-1.598-4.308c-0.205-0.589-0.294-1.261-0.268-2.018 0.033-0.754 0.204-1.563 0.512-2.427v0l2.544-7.125c0.147-0.413 0.346-0.678 0.596-0.797 0.25-0.118 0.581-0.104 0.994 0.043v0l3.029 1.082c0.216 0.077 0.393 0.173 0.531 0.286 0.132 0.112 0.227 0.246 0.286 0.403v0l1.086 2.976c0.624-0.987 1.377-1.692 2.258-2.115 0.888-0.421 2.02-0.385 3.399 0.107v0l2.677 0.955c0.762 0.272 1.393 0.641 1.893 1.106 0.504 0.473 0.872 1.027 1.103 1.661v0l1.58 4.269c0.217 0.615 0.313 1.3 0.286 2.057-0.033 0.754-0.2 1.554-0.502 2.398zM269.336 188.893l2.873-8.049c0.58-1.626 0.652-3.05 0.215-4.273-0.433-1.214-1.37-2.079-2.811-2.593v0l-2.677-0.956c-1.429-0.51-2.578-0.509-3.449 0.004-0.87 0.513-1.603 1.332-2.198 2.458v0l-1.859 3.611c-0.098 0.215-0.245 0.356-0.441 0.423-0.193 0.06-0.401 0.05-0.623-0.029v0c-0.222-0.079-0.383-0.201-0.482-0.366-0.103-0.173-0.115-0.37-0.035-0.592v0l2.115-5.925c0.116-0.324 0.126-0.585 0.033-0.783-0.088-0.196-0.293-0.352-0.618-0.468v0l-3.029-1.081c-0.324-0.116-0.585-0.126-0.783-0.033-0.198 0.094-0.355 0.303-0.471 0.627v0l-2.543 7.125c-0.587 1.645-0.66 3.072-0.219 4.283 0.442 1.21 1.383 2.072 2.825 2.587v0l2.677 0.955c1.423 0.508 2.567 0.512 3.432 0.012 0.874-0.504 1.606-1.32 2.195-2.449v0l1.898-3.629c0.098-0.215 0.234-0.353 0.405-0.414 0.181-0.064 0.414-0.046 0.699 0.056v0c0.203 0.073 0.357 0.192 0.463 0.359 0.108 0.16 0.122 0.351 0.042 0.574v0l-2.445 6.849c-0.116 0.324-0.126 0.585-0.032 0.783 0.09 0.19 0.297 0.342 0.62 0.458v0l2.982 1.064c0.324 0.116 0.581 0.129 0.77 0.039 0.198-0.094 0.355-0.303 0.471-0.627zM254.886 178.708l2.016-5.649 0.258 0.092-2.017 5.649c-0.256 0.718-0.265 1.355-0.028 1.913 0.242 0.566 0.658 0.954 1.249 1.165v0l2.086 0.745c0.597 0.213 1.055 0.244 1.374 0.093 0.327-0.155 0.595-0.414 0.803-0.777v0l3.004-4.985c0.283-0.472 0.655-0.812 1.116-1.019 0.457-0.216 1.126-0.167 2.009 0.148v0l1.477 0.527c0.749 0.268 1.274 0.745 1.572 1.431 0.301 0.68 0.298 1.452-0.01 2.316v0l-2.265 6.345-0.248-0.089 2.265-6.344c0.279-0.781 0.285-1.481 0.019-2.098-0.27-0.626-0.745-1.061-1.425-1.304v0l-1.477-0.527c-0.794-0.283-1.39-0.339-1.788-0.166-0.398 0.173-0.733 0.479-1.005 0.92v0l-3.013 4.981c-0.241 0.415-0.545 0.715-0.912 0.899-0.36 0.186-0.889 0.155-1.588-0.094v0l-2.086-0.745c-0.68-0.243-1.15-0.679-1.412-1.309-0.262-0.63-0.253-1.336 0.026-2.118z" fill="#7a26c1" data-fill-palette-color="primary"></path><path d="M3.997 137.67c0-4.843 3.926-8.769 8.769-8.768 4.843 0 8.769 3.926 8.768 8.768 0 4.843-3.926 8.769-8.768 8.769-4.843 0-8.769-3.926-8.769-8.769z" fill="#7a26c1" data-fill-palette-color="primary"></path><path d="M258.89 137.67c0-4.843 3.926-8.769 8.769-8.768 4.843 0 8.769 3.926 8.768 8.768 0 4.843-3.926 8.769-8.768 8.769-4.843 0-8.769-3.926-8.769-8.769z" fill="#7a26c1" data-fill-palette-color="primary"></path></g><g id="text-1"></g></svg></g></svg></g></svg></g><g></g></svg></g><defs></defs></svg><rect width="280" height="280" fill="none" stroke="none" visibility="hidden"></rect></g></svg></g></svg>